<?xml version="1.0" encoding="UTF-8"?>
<svg id="Capa_1" xmlns="http://www.w3.org/2000/svg" viewBox="0 0 100 100">
  <defs>
    <style>
      .cls-1 {
        fill: #4daf51;
      }

      .cls-2 {
        fill: #534741;
      }

      .cls-3 {
        fill: #998675;
      }

      .cls-4 {
        fill: #c7b299;
      }

      .cls-5 {
        fill: #ccc;
      }

      .cls-6 {
        fill: #b3b3b3;
      }

      .cls-7 {
        fill: #f17e00;
      }
    </style>
  </defs>
  <path class="cls-5" d="M80.33,56.75c1.08.55,1.57,2.16,1.54,5.04-.02,1.32-.16,2.86-.31,3.43-.37,1.32-1.37,2.4-2.41,2.6l-.81.16.18-.91c.1-.5.17-3.11.17-5.8-.02-4.73,0-4.88.46-4.88.27,0,.8.16,1.18.36Z"/>
  <path class="cls-5" d="M22.61,62.15c0,3.67-.09,5.76-.24,5.76-.6,0-1.75-.96-2.14-1.78-.56-1.17-.78-4.85-.39-6.67.38-1.82,1.33-2.98,2.53-3.06.15,0,.24,2.06.24,5.75Z"/>
  <path class="cls-3" d="M30.82,85.15c.2.31.31.61.26.66-.31.31-4.27-1.61-4.27-2.06,0-.51-.84-.48-1.25.05l-.43.55-.72-.78c-.4-.43-.84-1.26-.98-1.86-.15-.6-.36-1.08-.47-1.08s-.59.22-1.05.49c-.98.58-2.3,1-2.3.73,0-.1.16-.65.36-1.22.42-1.18,1.32-5.56,1.32-6.39,0-.2-.02-.33-.09-.41l2.16-.6c.99,3.66,3.04,6.94,5.56,8.69.67.47,1.02.94,1.24,1.66.16.55.46,1.26.66,1.57Z"/>
  <path class="cls-3" d="M23.36,73.23l-2.16.6c-.13-.14-.43-.16-1.13-.16-1.41,0-1.42.26.09-3.05.94-2.06,1.05-2.2,1.61-2.06.34.08.66.17.74.21s.22.72.3,1.54c.1.99.29,1.97.55,2.92Z"/>
  <path class="cls-3" d="M81.21,71.02l.99,2.53-1.07.07c-.67.05-1.11.21-1.2.43-.16.42.54,5.59.91,6.75.14.43.22.9.17,1.03-.04.13-.75-.08-1.59-.48-1.61-.77-1.97-.76-1.97.02,0,.63-.78,2.15-1.37,2.68-.44.4-.48.39-1.01-.21l-.55-.62-.74.71c-.8.76-2.28,1.58-3.31,1.83l-.63.15.69-1.36c.37-.74.68-1.49.68-1.65,0-.17.36-.53.79-.8.44-.27,1.44-1.16,2.24-2,2.19-2.28,3.41-5.09,4.18-9.62.26-1.52.32-1.62,1.03-1.8l.76-.2,1,2.54Z"/>
  <path class="cls-7" d="M77.8,55.69c.5,5.23.2,12.7-.67,16.61-.36,1.63-1.31,4.03-2.06,5.21-.85,1.34-2.85,3.46-3.87,4.09-.43.27-.79.68-.8.9-.01.58-1.26,2.79-1.55,2.73-.13-.02-.3-.28-.36-.57-.22-.96-.6-.74-1.32.74-.72,1.52-2.4,3.39-3.7,4.15l-.74.44v-1.15c0-1.35-.2-2.24-.51-2.24-.12,0-.48.53-.82,1.2-.82,1.62-2.01,2.9-3.81,4.11l-1.46.98-.12-1.39c-.16-1.73-.63-1.97-1.32-.67-.59,1.08-3.72,4.41-4.15,4.41-.48,0-3.03-2.52-4.03-3.98-.5-.72-.97-1.3-1.06-1.3-.3,0-.48.7-.48,1.83v1.08l-1.18-.64c-1.58-.86-3.76-3.04-4.5-4.5-.74-1.45-1.03-1.27-1.22.77-.07.82-.19,1.46-.25,1.46-.07,0-.68-.42-1.37-.96-1.36-1.04-2.27-2.2-2.87-3.64-.45-1.06-.97-1.17-1.27-.27l-.21.63-.44-.68c-.24-.36-.63-1.21-.85-1.86-.31-.91-.72-1.43-1.75-2.23-3.26-2.55-5.02-6.35-5.74-12.35-.26-2.23-.31-5.9-.2-9.15l2.45-.05c-.03.81-.04,1.71-.04,2.72,0,6.58.98,11.36,2.83,13.8,1.2,1.59,2.93,2.79,4.2,2.94.86.1,1.16-.01,2.08-.7,1.02-.78,1.11-.81,2.19-.6.72.13,1.29.13,1.56-.03.08-.05.14-.08.17-.12h1.59s.03.07.09.11c.19.11.85.11,1.43,0,1.03-.2,1.09-.18,1.7.59,1.59,1.97,5.77,2.94,9.66,2.23,1.68-.31,4.06-1.51,4.7-2.38.44-.59.45-.59,3.14-.44,1.49.09,3.13.08,3.66-.01.84-.15,1.05-.09,1.73.49,1.19,1.01,2.23,1.11,3.57.32,4.18-2.44,5.77-7.17,5.72-17.04-.02-4.46-.34-7.57-.95-9.07-.14-.35-.05-.38.64-.25.44.08,1.15.3,1.54.46l.73.3.29,2.97Z"/>
  <path class="cls-7" d="M66.69,75.97l-.91.41c-2.47,1.1-4.83,1.1-7.97,0-1.32-.46-2.83-.96-3.36-1.1-1.54-.41-2.71-.94-3.15-1.42-.27-.3-.43-.44-.71-.39l-.14-2.13c.27,0,.6-.12,1.26-.37.98-.37,1.71-.47,2.98-.41,2.11.12,3.74.85,6,2.72,1.87,1.55,3.23,2.24,4.89,2.51l1.11.18Z"/>
  <path class="cls-7" d="M50.45,71.34l.14,2.13c-.26.05-.63.3-1.3.76-.65.44-1.59.88-2.09.97-.5.1-1.85.54-2.98.99-1.12.44-2.58.89-3.2.97-.59.08-.87.16-.87.26h-1.59c.07-.14-.21-.23-1.04-.4-.72-.16-1.69-.48-2.15-.74l-.84-.45h.77c1.39-.04,3.26-.95,4.96-2.43.94-.81,2.27-1.75,3.02-2.11,1.15-.56,1.62-.65,3.49-.65,1.58,0,2.36.11,2.9.41.34.19.54.29.78.29Z"/>
  <path class="cls-7" d="M26.66,51.92s-.1.7-.29,1.47c-.47,1.86-.71,3.56-.8,6.01l-2.45.05c.11-3.26.38-6.11.74-6.69.15-.24,2.62-.98,2.8-.84Z"/>
  <path class="cls-2" d="M45.48,24.58s-.03,1.23-.17,2.67c-.13,1.44-.31,4.81-.4,7.48l-.17,4.86h-2.07c-5.11.01-15.32,1.26-17.76,2.18-.55.21-.57.19-.41-.57.41-2.05,2.65-5.76,4.94-8.19,2.84-3.01,5.94-5.11,9.99-6.76,1.8-.73,5.83-1.84,6.05-1.67Z"/>
  <path class="cls-2" d="M80.7,41.77c.07.24-.13.49-.51.67-.89.4-1.5.32-1.79-.24-.14-.26-.35-.41-.47-.33-.05.03-.22.03-.47-.01l.15-1.43s.01-.05.01-.08c0-.57-.91-2.71-1.69-3.88-.48-.72-.88-1.42-.88-1.54,0-.11-.28-.59-.61-1.02l-.61-.8.58-.23c.34-.13.96-.3,1.44-.38.82-.15.89-.11,1.51.87,1.3,2.06,2.19,4.3,3.34,8.4Z"/>
  <path class="cls-2" d="M77.61,40.43l-.15,1.43c-.39-.04-.99-.16-1.62-.32-3.62-.92-11.97-1.94-16.03-1.95-1.06,0-2.31-.07-2.78-.15l-.87-.14-.15-2.8c-.09-1.54-.23-4.88-.32-7.45l-.15-4.65,1.16.18c.65.1,2.05.43,3.16.76,2.28.66,5.82,2.26,7.75,3.49,3.57,2.28,6.94,5.98,8.8,9.65.58,1.16,1.12,2.06,1.18,2,.01-.01.02-.03.02-.05Z"/>
  <path class="cls-6" d="M76.68,10.72c1.52,1.14,2.02,3.33,1.1,4.89-.62,1.06-2.08,1.88-3.35,1.89-.92.01-1.01.07-1.35.9-1.75,4.27-4.11,9.82-4.24,9.96-.08.09-.31.07-.5-.05-.29-.18-.26-.41.2-1.49,2.89-6.79,3.93-9.63,3.65-10.01-1.56-2.16-1.73-2.94-.95-4.51.81-1.63,1.89-2.29,3.52-2.16.77.06,1.53.29,1.92.58Z"/>
  <path class="cls-6" d="M33.11,22.31c1.87,4.7,2.07,5.52,1.36,5.52-.1,0-.74-1.42-1.43-3.17-2.89-7.27-2.83-7.15-3.76-7.15-3.36,0-5.02-3.79-2.77-6.31.97-1.09,2.87-1.41,4.28-.74,1.01.49,1.7,1.34,2.01,2.49.3,1.13,0,2.21-.96,3.41l-.73.91,2,5.04Z"/>
  <path class="cls-2" d="M27.75,32.84c.26.18.1.53-.82,1.76-1.35,1.79-2.82,4.63-3.35,6.48-.22.74-.55,1.4-.75,1.48-.51.2-1.3-.24-1.3-.72,0-.64,1.37-4.53,2.26-6.4,1.11-2.36,1.74-3.13,2.4-2.95.28.08.65.14.86.14.19,0,.52.1.7.21Z"/>
  <path class="cls-4" d="M92.81,14.56c4.35,4.75,5.05,12.52,1.64,18.24-2.23,3.73-6.9,7.1-11.5,8.29l-1.32.35-.66-2.09c-.36-1.14-1.19-3.17-1.83-4.47-.63-1.29-1.11-2.45-1.05-2.55.05-.1.3-.19.51-.19.79,0,4.8-1.85,6.43-2.94,2.98-1.98,4.88-4.44,5.89-7.61.57-1.78.68-4.87.23-6.79-.48-2.04-.04-2.11,1.66-.24Z"/>
  <path class="cls-4" d="M24.36,32.52s-.21.52-.56,1.07c-.81,1.28-1.4,2.64-2.41,5.52-.89,2.54-.7,2.44-3.22,1.64-4.85-1.55-9.04-4.93-10.98-8.84-1.7-3.44-2.11-7.06-1.22-10.75.66-2.76,2.88-6.48,4.5-7.54.82-.54,1.04-.26.7.89-.46,1.56-.38,5.79.14,7.32,1.57,4.66,5.23,7.95,11.06,9.97,1.06.36,1.95.69,1.99.72Z"/>
  <path d="M96.18,18.47c1.03,2.69,1.2,3.62,1.19,6.48-.01,2.3-.11,3.08-.64,4.68-1.69,5.11-5.37,8.98-10.77,11.29-1.08.46-2.43.95-3.05,1.09-.6.15-1.54.55-2.06.89-.53.34-.99.65-1.03.67-.04.03.1,1.95.31,4.27.21,2.33.31,4.45.23,4.73-.19.63-1.05.96-1.65.65-.42-.22-.44-.18-.3.54.09.43.16.98.16,1.22,0,.31.17.45.55.45.87.01,2.38,1.01,2.91,1.92.41.69.51,1.34.58,3.62.1,3.22-.2,4.98-1.08,6.31l-.61.94.6,1.46c.33.82.84,2.02,1.14,2.7.29.68.48,1.4.41,1.59s-.64.49-1.24.66c-.72.2-1.1.44-1.1.69.01.95.73,5.09,1.06,6.05.51,1.5.19,1.78-1.54,1.32-.72-.2-1.49-.42-1.69-.5-.27-.1-.46.09-.68.69-.31.87-1.98,2.55-2.53,2.55-.19,0-.45-.15-.61-.34-.23-.28-.48-.21-1.61.47-.73.44-2.15.99-3.13,1.22-1.75.41-1.81.41-2.14-.03-.17-.24-.33-.33-.33-.19,0,.57-1.97,2.7-3.36,3.63-1.95,1.29-2.4,1.31-2.4.06v-.93l-1.63,1.63c-1.61,1.61-4.36,3.28-4.88,2.97-.15-.09-.21-.55-.14-1.08l.12-.91-1.92,2.03c-1.04,1.1-2.18,2.09-2.5,2.17-.77.19-2.48-1.13-4.37-3.38l-.81-.96.16.91c.18,1.08-.16,1.3-1.36.9-1.18-.39-3.92-2.49-4.74-3.64l-.73-1v1.11c0,.84-.1,1.12-.39,1.12-1.02,0-3.5-1.85-4.67-3.48-.55-.77-.86-1.01-1.06-.84-.62.51-4.51-.65-6-1.79-.65-.5-.82-.55-.93-.25-.4,1.04-2.81-.48-3.18-1.99-.23-.99-.26-1-1.27-.51-1.2.58-2.78.83-3,.48-.09-.14.06-.86.33-1.58.59-1.59,1.52-6.05,1.33-6.36-.08-.14-.41-.24-.75-.24-.81,0-1.53-.42-1.53-.89,0-.22.56-1.6,1.23-3.04,1.01-2.13,1.19-2.7.96-3.01-.61-.84-1.05-2.13-1.25-3.69-.27-2.14.09-5.71.68-6.72.45-.78,1.57-1.56,2.48-1.73.65-.13.62-.07.82-1.27.16-1.01.15-1.03-.41-.89-.41.1-.71,0-1.02-.35-.39-.44-.42-.74-.28-2.71.1-1.22.32-3.25.5-4.5l.32-2.28-.64-.53c-.35-.29-1.38-.76-2.31-1.04-6.19-1.91-10.47-5.25-12.71-9.93-1.32-2.78-1.66-4.25-1.65-7.1.02-3.84,1.33-7.62,3.61-10.42,1.38-1.7,2.67-2.47,3.45-2.05.5.26.52.37.32,1.88-.37,2.74-.27,6.01.22,7.47.94,2.82,3.21,5.46,6.28,7.31,1.8,1.08,5.25,2.34,6.6,2.4.59.03,1.7.2,2.45.37l1.36.31,1.28-1.22c.69-.67,1.73-1.56,2.29-1.96l1.02-.73-.45-1.14c-.24-.63-1.12-2.83-1.95-4.9l-1.51-3.75-.89-.12c-2.52-.34-4.08-2.09-4.08-4.56,0-.77.15-1.69.34-2.04.51-.98,1.65-1.97,2.71-2.36,2.64-.97,5.75.96,6.02,3.75.13,1.34-.38,3.04-1.13,3.71-.4.37-.42.51-.14,1.3.51,1.42,3.03,7.79,3.26,8.24.2.36.39.33,1.95-.39,2.11-.97,4.41-1.74,6.43-2.14,1.41-.29,1.53-.36,1.77-1.12.34-1.1,1.11-1.44,3.58-1.61,4.1-.29,6.17.28,6.17,1.7,0,.53.14.61,1.58.85,2.33.41,5.19,1.36,7.73,2.58,1.25.6,2.34,1,2.45.88.1-.11.58-1.16,1.07-2.36.48-1.19,1.37-3.37,1.98-4.86l1.1-2.7-.52-.55c-1.01-1.09-1.32-3.27-.68-4.8.6-1.43,2.69-2.81,4.25-2.81s3.65,1.38,4.24,2.81c1.25,3.01-1.1,6.54-4.36,6.55-.4,0-.85.87-2.69,5.31l-2.21,5.32.65.5c.36.28,1.2,1.02,1.87,1.65l1.23,1.14,1.05-.37c.58-.21,1.66-.42,2.38-.46,3.38-.23,8.67-3.07,10.98-5.89,2.46-3.01,3.31-6.27,2.63-10.11-.42-2.37-.32-2.94.57-3.22,1.24-.4,4.1,2.89,5.35,6.13ZM94.45,32.8c3.41-5.72,2.71-13.49-1.64-18.24-1.7-1.87-2.14-1.8-1.66.24.45,1.92.34,5.01-.23,6.79-1.01,3.17-2.91,5.63-5.89,7.61-1.63,1.09-5.64,2.93-6.43,2.94-.21,0-.46.09-.51.19-.06.1.42,1.26,1.05,2.55.64,1.3,1.47,3.33,1.83,4.47l.66,2.09,1.32-.35c4.6-1.19,9.27-4.56,11.5-8.29ZM82.2,73.55l-.99-2.53-1-2.54-.76.2c-.71.18-.77.28-1.03,1.8-.77,4.53-1.99,7.34-4.18,9.62-.8.84-1.8,1.73-2.24,2-.43.27-.79.63-.79.8,0,.16-.31.91-.68,1.65l-.69,1.36.63-.15c1.03-.25,2.51-1.07,3.31-1.83l.74-.71.55.62c.53.6.57.61,1.01.21.59-.53,1.37-2.05,1.37-2.68,0-.78.36-.79,1.97-.02.84.4,1.55.61,1.59.48.05-.13-.03-.6-.17-1.03-.37-1.16-1.07-6.33-.91-6.75.09-.22.53-.38,1.2-.43l1.07-.07ZM81.87,61.79c.03-2.88-.46-4.49-1.54-5.04-.38-.2-.91-.36-1.18-.36-.46,0-.48.15-.46,4.88,0,2.69-.07,5.3-.17,5.8l-.18.91.81-.16c1.04-.2,2.04-1.28,2.41-2.6.15-.57.29-2.11.31-3.43ZM80.19,42.44c.38-.18.58-.43.51-.67-1.15-4.1-2.04-6.34-3.34-8.4-.62-.98-.69-1.02-1.51-.87-.48.08-1.1.25-1.44.38l-.58.23.61.8c.33.43.61.91.61,1.02,0,.12.4.82.88,1.54.78,1.17,1.69,3.31,1.69,3.88,0,.03,0,.06-.01.08,0,.02-.01.04-.02.05-.06.06-.6-.84-1.18-2-1.86-3.67-5.23-7.37-8.8-9.65-1.93-1.23-5.47-2.83-7.75-3.49-1.11-.33-2.51-.66-3.16-.76l-1.16-.18.15,4.65c.09,2.57.23,5.91.32,7.45l.15,2.8.87.14c.47.08,1.72.15,2.78.15,4.06.01,12.41,1.03,16.03,1.95.63.16,1.23.28,1.62.32.25.04.42.04.47.01.12-.08.33.07.47.33.29.56.9.64,1.79.24ZM79.23,52.23c.43.14.44.03.29-2.23-.23-3.4-.66-6.3-.97-6.54-.13-.11-.51-.26-1.02-.43-1.11-.39-2.88-.87-4.28-1.14-3.34-.64-7.27-1.06-12.48-1.34-3.53-.19-5.14-.36-5.36-.58-.25-.24-.39-2.35-.58-8.93-.14-4.72-.27-8.63-.29-8.66s-.49-.12-1.04-.22l-1.01-.16.14.73c.12.57.05.79-.33.99-.63.34-2.58.35-3.19.02-.53-.29-.61-.94-.17-1.38.23-.23.19-.29-.19-.27-1.01.05-1.68.37-1.94.94-.35.77-.75,5.81-.95,12.07-.09,2.74-.23,5.03-.31,5.08-.08.04-2.18.2-4.7.36-9.62.58-17.23,1.92-17.88,3.13-.34.63-1.09,7.17-.98,8.57.01.23.26.19.93-.15,1.24-.63,3.62-1.18,6.86-1.63,4.74-.65,11.3-1.09,18.75-1.2.9-.01,1.78-.02,2.64-.02,6.98-.04,12.77.22,17.64.82,4.06.49,7.48,1.21,10.42,2.17ZM77.78,15.61c.92-1.56.42-3.75-1.1-4.89-.39-.29-1.15-.52-1.92-.58-1.63-.13-2.71.53-3.52,2.16-.78,1.57-.61,2.35.95,4.51.28.38-.76,3.22-3.65,10.01-.46,1.08-.49,1.31-.2,1.49.19.12.42.14.5.05.13-.14,2.49-5.69,4.24-9.96.34-.83.43-.89,1.35-.9,1.27-.01,2.73-.83,3.35-1.89ZM77.13,72.3c.87-3.91,1.17-11.38.67-16.61l-.29-2.97-.73-.3c-.39-.16-1.1-.38-1.54-.46-.69-.13-.78-.1-.64.25.61,1.5.93,4.61.95,9.07.05,9.87-1.54,14.6-5.72,17.04-1.34.79-2.38.69-3.57-.32-.68-.58-.89-.64-1.73-.49-.53.09-2.17.1-3.66.01-2.69-.15-2.7-.15-3.14.44-.64.87-3.02,2.07-4.7,2.38-3.89.71-8.07-.26-9.66-2.23-.61-.77-.67-.79-1.7-.59-.58.11-1.24.11-1.43,0-.06-.04-.09-.07-.09-.1,0-.1.28-.18.87-.26.62-.08,2.08-.53,3.2-.97,1.13-.45,2.48-.89,2.98-.99.5-.09,1.44-.53,2.09-.97.67-.46,1.04-.71,1.3-.76.28-.05.44.09.71.39.44.48,1.61,1.01,3.15,1.42.53.14,2.04.64,3.36,1.1,3.14,1.1,5.5,1.1,7.97,0l.91-.41-1.11-.18c-1.66-.27-3.02-.96-4.89-2.51-2.26-1.87-3.89-2.6-6-2.72-1.27-.06-2,.04-2.98.41-.66.25-.99.37-1.26.37-.24,0-.44-.1-.78-.29-.54-.3-1.32-.41-2.9-.41-1.87,0-2.34.09-3.49.65-.75.36-2.08,1.3-3.02,2.11-1.7,1.48-3.57,2.39-4.96,2.42h-.77s.84.46.84.46c.46.26,1.43.58,2.15.74.83.17,1.11.26,1.04.39-.03.04-.09.07-.17.12-.27.16-.84.16-1.56.03-1.08-.21-1.17-.18-2.19.6-.92.69-1.22.8-2.08.7-1.27-.15-3-1.35-4.2-2.94-1.85-2.44-2.83-7.22-2.83-13.8,0-1.01.01-1.91.04-2.72.09-2.45.33-4.15.8-6.01.19-.77.33-1.44.29-1.47-.18-.14-2.65.6-2.8.84-.36.58-.63,3.43-.74,6.69-.11,3.25-.06,6.92.2,9.15.72,6,2.48,9.8,5.74,12.35,1.03.8,1.44,1.32,1.75,2.23.22.65.61,1.5.85,1.86l.44.68.21-.63c.3-.9.82-.79,1.27.27.6,1.44,1.51,2.6,2.87,3.64.69.54,1.3.96,1.37.96.06,0,.18-.64.25-1.46.19-2.04.48-2.22,1.22-.77.74,1.46,2.92,3.64,4.5,4.5l1.18.64v-1.08c0-1.13.18-1.83.48-1.83.09,0,.56.58,1.06,1.3,1,1.46,3.55,3.98,4.03,3.98.43,0,3.56-3.33,4.15-4.41.69-1.3,1.16-1.06,1.32.67l.12,1.39,1.46-.98c1.8-1.21,2.99-2.49,3.81-4.11.34-.67.7-1.2.82-1.2.31,0,.51.89.51,2.24v1.15l.74-.44c1.3-.76,2.98-2.63,3.7-4.15.72-1.48,1.1-1.7,1.32-.74.06.29.23.55.36.57.29.06,1.54-2.15,1.55-2.73.01-.22.37-.63.8-.9,1.02-.63,3.02-2.75,3.87-4.09.75-1.18,1.7-3.58,2.06-5.21ZM72.8,68.05c.74-5.06.17-14.83-.95-16.32-.32-.43-4.17-.94-10-1.35-4.73-.32-18.12-.25-23.35.13-6.34.46-8.37.76-8.84,1.32-1.04,1.24-1.77,7.08-1.56,12.48.28,7.1,1.49,10.49,4.33,12.11,1.82,1.04,3.16,1.05,1.51.01-.43-.27-.8-.69-.84-.96-.07-.44.07-.48,1.68-.48,2.15,0,3.24-.48,5.47-2.44,2.36-2.07,3.7-2.6,6.48-2.6,1.68,0,2.49.11,3.08.41.77.39.84.39,1.43,0,.49-.32,1.17-.41,3.04-.41,2.21,0,2.54.06,3.97.74.86.41,2.17,1.29,2.93,1.96,2,1.77,3.31,2.34,5.42,2.34,1.61,0,1.75.04,1.68.48-.04.27-.41.69-.84.96-1.06.66-1.01.93.1.47,3.31-1.37,4.45-3.28,5.26-8.85ZM56.98,77.36c.09-.26-1.35-.9-3.72-1.66-.7-.22-1.59-.67-1.97-.99-.43-.36-.75-.49-.84-.35-.25.41-2.23,1.34-4.39,2.06-1.08.36-1.97.71-1.97.78,0,.32,1.49,1.32,2.64,1.76,1.72.67,5.26.75,7.2.16,1.37-.41,2.89-1.29,3.05-1.76ZM52.25,23.03c0-.12-.17-.39-.38-.6-.75-.75-2.96-.19-2.67.67.17.52,3.05.46,3.05-.07ZM45.31,27.25c.14-1.44.21-2.64.17-2.67-.22-.17-4.25.94-6.05,1.67-4.05,1.65-7.15,3.75-9.99,6.76-2.29,2.43-4.53,6.14-4.94,8.19-.16.76-.14.78.41.57,2.44-.92,12.65-2.17,17.76-2.18h2.07l.17-4.86c.09-2.67.27-6.04.4-7.48ZM34.47,27.83c.71,0,.51-.82-1.36-5.52l-2-5.04.73-.91c.96-1.2,1.26-2.28.96-3.41-.31-1.15-1-2-2.01-2.49-1.41-.67-3.31-.35-4.28.74-2.25,2.52-.59,6.31,2.77,6.31.93,0,.87-.12,3.76,7.15.69,1.75,1.33,3.17,1.43,3.17ZM31.08,85.81c.05-.05-.06-.35-.26-.66s-.5-1.02-.66-1.57c-.22-.72-.57-1.19-1.24-1.66-2.52-1.75-4.57-5.03-5.56-8.69-.26-.95-.45-1.93-.55-2.92-.08-.82-.22-1.5-.3-1.54s-.4-.13-.74-.21c-.56-.14-.67,0-1.61,2.06-1.51,3.31-1.5,3.05-.09,3.05.7,0,1,.02,1.13.16.07.08.09.21.09.41,0,.83-.9,5.21-1.32,6.39-.2.57-.36,1.12-.36,1.22,0,.27,1.32-.15,2.3-.73.46-.27.94-.49,1.05-.49s.32.48.47,1.08c.14.6.58,1.43.98,1.86l.72.78.43-.55c.41-.53,1.25-.56,1.25-.05,0,.45,3.96,2.37,4.27,2.06ZM26.93,34.6c.92-1.23,1.08-1.58.82-1.76-.18-.11-.51-.21-.7-.21-.21,0-.58-.06-.86-.14-.66-.18-1.29.59-2.4,2.95-.89,1.87-2.26,5.76-2.26,6.4,0,.48.79.92,1.3.72.2-.08.53-.74.75-1.48.53-1.85,2-4.69,3.35-6.48ZM23.8,33.59c.35-.55.6-1.04.56-1.07s-.93-.36-1.99-.72c-5.83-2.02-9.49-5.31-11.06-9.97-.52-1.53-.6-5.76-.14-7.32.34-1.15.12-1.43-.7-.89-1.62,1.06-3.84,4.78-4.5,7.54-.89,3.69-.48,7.31,1.22,10.75,1.94,3.91,6.13,7.29,10.98,8.84,2.52.8,2.33.9,3.22-1.64,1.01-2.88,1.6-4.24,2.41-5.52ZM22.37,67.91c.15,0,.24-2.09.24-5.76s-.09-5.75-.24-5.75c-1.2.08-2.15,1.24-2.53,3.06-.39,1.82-.17,5.5.39,6.67.39.82,1.54,1.78,2.14,1.78Z"/>
  <path class="cls-6" d="M79.52,50c.15,2.26.14,2.37-.29,2.23-2.94-.96-6.36-1.68-10.42-2.17l.07-.61c3.48.43,7.36,1.02,8.45,1.33.36.1.41.06.21-.15-.55-.58-9.57-1.86-15.06-2.25l.09-1.1c1.37.14,2.4-.74,2.4-2.05,0-1.08-.94-2.14-1.95-2.27l.08-1.04c4.22.31,9.61,1.04,12.65,1.75,2.01.48,2.83.47,1.56-.01l.22-.63c.51.17.89.32,1.02.43.31.24.74,3.14.97,6.54ZM73.92,48.47c1.47,0,2.33-1.3,1.85-2.76-.53-1.59-2.16-2.07-3.26-.96-1.31,1.3-.39,3.72,1.41,3.72Z"/>
  <path d="M77.31,43.66c1.27.48.45.49-1.56.01-3.04-.71-8.43-1.44-12.65-1.75-1.41-.11-2.68-.17-3.7-.17-.89,0-1.67-.11-1.75-.24-.18-.31.24-.31,5.16,0,5.69.36,12.41,1.35,14.5,2.15Z"/>
  <path d="M77.54,50.63c.2.21.15.25-.21.15-1.09-.31-4.97-.9-8.45-1.33-1.29-.17-2.53-.3-3.55-.39-2.38-.21-5.08-.46-6-.57l-1.68-.19,1.87-.04c.74-.01,1.76.03,2.96.12,5.49.39,14.51,1.67,15.06,2.25Z"/>
  <path class="cls-6" d="M56.85,41.27h-8.32c-4.97-.02-9.92.1-12.12.29-4.18.36-9.07,1.11-11.02,1.69-1.44.44-1.52.76-.09.38,2.98-.79,7.3-1.38,12.83-1.75l.08,1.21c-.25.03-.49.1-.74.23-2.09,1.04-1.49,3.95.81,3.95l.12,1.15c-6.82.67-10.68,1.19-12.96,1.76-1.64.41-1.2.63.58.29,1.05-.2,2.3-.41,3.68-.6l.08.59c-3.24.45-5.62,1-6.86,1.63-.67.34-.92.38-.93.15-.11-1.4.64-7.94.98-8.57.65-1.21,8.26-2.55,17.88-3.13,2.52-.16,4.62-.32,4.7-.36.08-.05.22-2.34.31-5.08.2-6.26.6-11.3.95-12.07.26-.57.93-.89,1.94-.94.38-.02.42.04.19.27-.44.44-.36,1.09.17,1.38.61.33,2.56.32,3.19-.02.38-.2.45-.42.33-.99l-.14-.73,1.01.16c.55.1,1.02.19,1.04.22s.15,3.94.29,8.66c.19,6.58.33,8.69.58,8.93.22.22,1.83.39,5.36.58,5.21.28,9.14.7,12.48,1.34,1.4.27,3.17.75,4.28,1.14l-.22.63c-2.09-.8-8.81-1.79-14.5-2.15-4.92-.31-5.34-.31-5.16,0,.08.13.86.24,1.75.24,1.02,0,2.29.06,3.7.17l-.08,1.04c-.07-.01-.14-.01-.21-.01-.53,0-.99.22-1.46.69-1.3,1.3-.58,3.45,1.22,3.64l-.09,1.1c-1.2-.09-2.22-.13-2.96-.12l-1.87.04,1.68.19c.92.11,3.62.36,6,.57,1.02.09,2.26.22,3.55.39l-.07.61c-4.87-.6-10.66-.86-17.64-.82v-.8c1.44,0,2.95-.06,3.6-.2.67-.14-.29-.21-3.12-.23-.43,0-.82,0-1.17.01v-.89c.31,0,.64-.07.98-.22.91-.38,1.27-.99,1.27-2.16,0-1.26-.86-2.04-2.26-2.04l-.03-1.3,6.41-.14ZM52.63,38.03c.55-.84.17-1.7-.96-2.18-1.1-.46-1.54-.44-2.44.12-1.32.8-1.37,2.13-.1,2.79,1.27.65,2.8.34,3.5-.73ZM51.87,30.9c.67-.35.86-.67.86-1.44,0-1.19-1.87-1.92-3.29-1.28-.8.35-1.18,1.18-.92,2,.29.9,2.22,1.32,3.35.72ZM29.33,46.74c.41-1.63-1.61-3.18-3.05-2.34-.7.42-1.21,1.64-1.04,2.53.4,2.17,3.54,2.02,4.09-.19Z"/>
  <path d="M75.77,45.71c.48,1.46-.38,2.76-1.85,2.76-1.8,0-2.72-2.42-1.41-3.72,1.1-1.11,2.73-.63,3.26.96ZM74.9,47.32c.55-.6.51-1.37-.09-1.97-1.29-1.29-3.02.33-1.89,1.77.59.75,1.41.83,1.98.2Z"/>
  <path d="M74.81,45.35c.6.6.64,1.37.09,1.97-.57.63-1.39.55-1.98-.2-1.13-1.44.6-3.06,1.89-1.77Z"/>
  <path d="M63.02,42.96c1.01.13,1.95,1.19,1.95,2.27,0,1.31-1.03,2.19-2.4,2.05-1.8-.19-2.52-2.34-1.22-3.64.47-.47.93-.69,1.46-.69.07,0,.14,0,.21.01ZM63.89,46.21c.72-.72.75-1.33.12-2.01-.95-1.02-2.65-.44-2.64.91,0,.72.2,1.04.89,1.41.74.4.97.35,1.63-.31Z"/>
  <path d="M64.01,44.2c.63.68.6,1.29-.12,2.01-.66.66-.89.71-1.63.31-.69-.37-.89-.69-.89-1.41-.01-1.35,1.69-1.93,2.64-.91Z"/>
  <path class="cls-1" d="M61.25,57.59c1.72,0,2.8,1.82,2.78,4.73-.01,2.68-1.09,4.39-2.78,4.39s-2.76-1.71-2.76-4.56c0-2.02.53-3.51,1.46-4.17.31-.22.89-.39,1.3-.39Z"/>
  <path d="M56.85,41.27l-6.41.14-2.15.04c-3.74.08-7.13.22-10.16.43-5.53.37-9.85.96-12.83,1.75-1.43.38-1.35.06.09-.38,1.95-.58,6.84-1.33,11.02-1.69,2.2-.19,7.15-.31,12.12-.3h8.32Z"/>
  <path d="M51.65,48.01c2.83.02,3.79.09,3.12.23-.65.14-2.16.2-3.6.2-1.55,0-3.01-.08-3.24-.22-.2-.13.65-.2,2.55-.2.35-.01.74-.01,1.17-.01Z"/>
  <path d="M51.67,35.85c1.13.48,1.51,1.34.96,2.18-.7,1.07-2.23,1.38-3.5.73-1.27-.66-1.22-1.99.1-2.79.9-.56,1.34-.58,2.44-.12ZM49.2,38.11c1.39,1.11,3.82-.15,2.69-1.4-.87-.96-3-.55-3,.57,0,.32.14.69.31.83Z"/>
  <path d="M50.47,42.71c1.4,0,2.26.78,2.26,2.04,0,1.17-.36,1.78-1.27,2.16-.34.15-.67.22-.99.22-.64,0-1.22-.3-1.71-.87-.77-.92-.76-1.87.03-2.81.53-.62.8-.74,1.68-.74ZM51.81,45.83c.6-.75.55-1.36-.16-2.07-.31-.31-.84-.57-1.15-.57-.79,0-1.61.84-1.61,1.65,0,1.42,2.02,2.1,2.92.99Z"/>
  <path d="M52.73,29.46c0,.77-.19,1.09-.86,1.44-1.13.6-3.06.18-3.35-.72-.26-.82.12-1.65.92-2,1.42-.64,3.29.09,3.29,1.28ZM51.19,30.58c.99-.35,1.26-.93.72-1.53-.3-.34-.74-.5-1.34-.5-1.1,0-1.93.75-1.53,1.39.37.6,1.41.9,2.15.64Z"/>
  <path d="M51.65,43.76c.71.71.76,1.32.16,2.07-.9,1.11-2.92.43-2.92-.99,0-.81.82-1.65,1.61-1.65.31,0,.84.26,1.15.57Z"/>
  <path class="cls-6" d="M51.17,48.44v.8c-.86,0-1.74.01-2.64.02-7.45.11-14.01.55-18.75,1.2l-.08-.59c3.17-.46,7.03-.87,10.79-1.16q5.62-.43,2.4-.42c-1.78,0-3.62.05-4.08.09-.14,0-.27.03-.41.04l-.12-1.15c1.37,0,2.21-.73,2.21-1.92,0-1.44-1.07-2.4-2.28-2.26l-.08-1.21c3.03-.21,6.42-.35,10.16-.43l2.15-.04.03,1.3c-.88,0-1.15.12-1.68.74-.79.94-.8,1.89-.03,2.81.49.57,1.07.87,1.71.87v.89c-1.89,0-2.74.07-2.54.2.23.14,1.69.22,3.24.22Z"/>
  <path d="M42.89,48.29q3.23-.01-2.4.42c-3.76.29-7.62.7-10.79,1.16-1.38.19-2.63.4-3.68.6-1.78.34-2.22.12-.58-.29,2.28-.57,6.14-1.09,12.96-1.76.14-.01.27-.03.41-.04.46-.04,2.3-.08,4.08-.09Z"/>
  <path class="cls-1" d="M42.53,60.06c.43,1.46.45,2.14.09,3.82-.36,1.63-1.48,2.83-2.66,2.83-1.78,0-2.81-1.66-2.82-4.51,0-2.02.42-3.29,1.38-4.07,1.45-1.2,3.35-.28,4.01,1.93Z"/>
  <path d="M39.53,44.15c.64.64.6,1.32-.11,2.04-1.06,1.06-2.53.5-2.53-.96s1.65-2.07,2.64-1.08Z"/>
  <path d="M40.49,45.35c0,1.19-.84,1.92-2.21,1.92-2.3,0-2.9-2.91-.81-3.95.25-.13.49-.2.74-.23,1.21-.14,2.28.82,2.28,2.26ZM39.42,46.19c.71-.72.75-1.4.11-2.04-.99-.99-2.64-.31-2.64,1.08,0,1.46,1.47,2.02,2.53.96Z"/>
  <path d="M26.28,44.4c1.44-.84,3.46.71,3.05,2.34-.55,2.21-3.69,2.36-4.09.19-.17-.89.34-2.11,1.04-2.53ZM28.3,47.27c.54-.66.56-1.18.07-1.87-.72-1.02-2.52-.32-2.52.98,0,1.37,1.59,1.95,2.45.89Z"/>
  <path d="M28.37,45.4c.49.69.47,1.21-.07,1.87-.86,1.06-2.45.48-2.45-.89s1.8-2,2.52-.98Z"/>
</svg>