<?xml version="1.0" encoding="UTF-8"?>
<svg id="Capa_1" xmlns="http://www.w3.org/2000/svg" viewBox="0 0 50 50">
  <defs>
    <style>
      .cls-1 {
        fill: #4daf51;
      }

      .cls-2 {
        fill: #f0f;
      }

      .cls-3 {
        fill: #ed1e79;
      }
    </style>
  </defs>
  <path d="M22.05,10.27c-.29.37-.34.6-.26,1.18.09.62,0,.93-.68,2.3l-.78,1.57-1.73.03c-1.26.02-2.09.13-3.09.43l-1.36.4-.96-1.33c-.87-1.21-.95-1.4-.87-2.01.08-.54.02-.75-.31-1.1-.83-.88-2.37-.26-2.37.95,0,.65.66,1.36,1.26,1.36.45,0,1.18.83,1.89,2.16.31.58.31.6-.02.78-.63.35-2.15,1.92-2.46,2.53-.17.34-.63.85-1.04,1.15-1.01.74-1.94,2.17-2.19,3.37-.44,2.09.28,7.48,1.29,9.69.24.53.69,1.22.98,1.53.84.88,1.52,1.17,3.73,1.64l.46.1-.59,1.07c-1.12,2.04-1.71,4.44-1.2,4.87.46.38.82-.03,1.06-1.2.32-1.6.84-2.87,1.56-3.81l.65-.85,1.52-.13c.83-.07,2.41-.25,3.48-.41s2.11-.29,2.29-.3c.26-.01.5.31,1.04,1.39.7,1.41,1.04,2.6,1.23,4.39.12,1.09.48,1.48.97,1.07.59-.49-.01-3.59-1.13-5.83-.36-.73-.65-1.36-.63-1.38.02-.02.69-.24,1.49-.5,2.72-.89,3.89-1.77,4.69-3.54.45-.99.48-1.22.55-3.74.17-6.75-1.28-9.68-5.12-10.36-.83-.15-1.14-.29-1.57-.75-.29-.31-.97-.77-1.5-1l-.96-.43.76-1.52c.59-1.17.86-1.55,1.19-1.63.53-.13,1.1-.83,1.1-1.34,0-1.19-1.65-1.74-2.39-.8h0ZM20.29,16.5c.99.18,2.96.95,2.96,1.16,0,.06-.68.13-1.5.15-2.91.1-6.87.85-9.47,1.81-.61.22-1.1.34-1.1.25,0-.32,1.51-1.62,2.48-2.14,1.1-.59,2.55-1.05,3.89-1.25,1.28-.19,1.63-.18,2.74.02h0ZM26.41,19.96c1.47.68,2.27,2.17,2.53,4.73l.12,1.12-.59.07c-.54.06-.61.02-.95-.61-.41-.78-1.22-1.39-2.15-1.65-1.51-.41-3.54.77-4.11,2.4l-.29.82-1.03.08c-.56.05-1.2.14-1.41.2-.29.09-.38.05-.38-.15,0-.34-1.12-1.58-1.7-1.88-2.07-1.07-4.77.32-5.27,2.72-.09.44-.21.53-.82.66-.54.12-.71.23-.71.49,0,.3.08.33.72.25l.72-.09.43.87c1.2,2.43,4.65,2.58,6.18.27.26-.39.51-1.01.58-1.4.1-.6.22-.75.76-1.02.46-.23.82-.28,1.3-.2.59.1.7.2.94.84.34.9.79,1.34,1.86,1.81,2.03.89,4.4-.52,4.78-2.85.1-.59.2-.74.61-.88.67-.23.73-.04.6,1.83-.29,4.11-1.57,5.23-7.33,6.39-3.79.76-7.84.92-9.69.38-.92-.27-2-1.39-2.42-2.51-.55-1.49-.97-4.15-.97-6.27,0-1.7.04-2.05.36-2.65.44-.82,1.09-1.41,2.13-1.91.98-.47,4.88-1.47,7.02-1.8q2.55-.39,5.01-.42c2.09-.02,2.37.01,3.16.38h0ZM25.97,24.69c.87.59,1.2,1.15,1.22,2.08.02,1.07-.4,2-1.19,2.6-.78.6-2.3.65-3.04.1-.9-.66-1.27-1.41-1.2-2.38.17-2.16,2.56-3.53,4.21-2.41h0ZM16.23,25.81c1.51.82,1.94,2.85.89,4.27-.85,1.16-2.48,1.49-3.92.81-1.01-.48-1.64-1.95-1.32-3.08.2-.73,1.08-1.76,1.76-2.06.71-.31,1.94-.28,2.58.07h0Z"/>
  <path d="M30.54,12.69c-.18.21-.24.97-.25,3.04,0,1.51.04,2.85.1,2.97.06.11.27.18.44.14.3-.05.33-.27.46-2.82v-2.75h13.77v9.06c-.05,7.85-.02,9.11.2,9.28.2.16.31.16.51,0,.22-.18.26-1.42.26-9.24,0-6.94-.05-9.13-.22-9.46l-.22-.5h-7.4c-6.73,0-7.43.01-7.64.27h0Z"/>
  <path class="cls-3" d="M36.78,15.41c-.25.1-.3.74-.05.74.1,0,.17.63.17,1.53,0,.97-.07,1.53-.18,1.53-.1,0-.15.18-.13.38.05.37.12.38,1.67.38s1.61,0,1.61-.42-.03-.42-1.06-.37l-1.06.06v-.53c0-.48.05-.53.58-.53.8,0,1.12-.15,1.12-.53,0-.27-.14-.32-.85-.32-.83,0-.85-.01-.85-.5s0-.5,1.06-.55c.88-.04,1.07-.11,1.12-.37.03-.17-.05-.39-.16-.46-.24-.15-2.63-.19-2.99-.04h0Z"/>
  <path class="cls-3" d="M34.46,22.31s-.02.88-.03,1.92c-.02,1.68.01,1.88.29,1.93.39.07.59-.26.59-.96,0-.51.03-.54.6-.54.48,0,.59-.07.59-.34s-.12-.34-.59-.34c-.53,0-.6-.05-.6-.43,0-.4.06-.42.86-.42s.85-.03.81-.38c-.05-.35-.14-.39-1.28-.43-.68-.03-1.24-.03-1.24,0h0Z"/>
  <path class="cls-3" d="M39.62,24.24v1.96h.43c.38,0,.43-.07.43-.68s.06-.69.46-.78c.8-.18.87-.22,1.18-.68.61-.92-.19-1.76-1.69-1.77h-.8s0,1.95,0,1.95h0ZM41.35,23.55c0,.25-.13.35-.47.39-.41.04-.47,0-.47-.39s.06-.44.47-.39c.34.04.47.14.47.39h0Z"/>
  <path d="M30.96,24.66c.06.58.11,1.9.11,2.92,0,1.82,0,1.85.37,1.8,1.62-.23,1.44-5.48-.19-5.72-.4-.06-.41-.05-.3,1h0Z"/>
  <path d="M5.09,26.98c-.62.25-.96,1.8-.7,3.2.38,2.07,1.52,3.37,2.21,2.53.17-.21.13-.75-.23-2.91-.46-2.77-.6-3.09-1.28-2.82h0Z"/>
  <path class="cls-2" d="M33.62,28.9c0,.24.12.34.43.34.4,0,.42.05.42,1.02,0,.8.06,1.02.25,1.02s.26-.22.26-1.02c0-.97.02-1.02.42-1.02.31,0,.43-.1.43-.34,0-.3-.12-.34-1.11-.34s-1.1.04-1.1.34h0Z"/>
  <path class="cls-2" d="M37.49,28.77c-.6.45-.72,1.54-.24,2.16.31.4.98.56,1.47.36,1.3-.54.97-2.72-.41-2.72-.31,0-.66.09-.82.21h0ZM38.71,29.48c.48.58-.18,1.6-.74,1.14-.27-.23-.38-1.05-.17-1.26.2-.2.7-.14.91.12h0Z"/>
  <path class="cls-2" d="M40.79,28.86c.03.19.25.32.6.35l.55.05-.6.73c-.88,1.08-.82,1.29.43,1.29.8,0,1.02-.06,1.02-.25,0-.17-.17-.26-.51-.26-.62,0-.62-.12,0-.95.79-1.05.71-1.26-.51-1.26-.9,0-1.03.04-.99.3h0Z"/>
  <path class="cls-1" d="M41.35,33.38c-1.52.71-2.3,1.95-2.3,3.68,0,2.43,1.69,4.15,4.08,4.15s4.14-1.78,4.12-4.15c-.02-3.06-3.11-4.99-5.91-3.68h0ZM44.43,34.15c1.09.5,1.94,1.77,1.94,2.91,0,.63-.4,1.6-.9,2.16-.92,1.04-2.21,1.34-3.48.81-2.67-1.11-2.74-4.67-.12-5.88.87-.4,1.68-.4,2.57,0h0Z"/>
  <path d="M30.97,34.52c-.06.1-.02.29.1.42.18.2.77.24,3.54.2,3.2-.04,3.33-.06,3.33-.38s-.14-.34-3.43-.38c-2.3-.03-3.47.02-3.54.14h0Z"/>
  <path class="cls-1" d="M20.87,31.55c-.68.48-1.09.51-1.77.16-.37-.19-.55-.21-.73-.06-.2.16-.19.25.04.5.43.46,1.32.66,2.05.46.99-.27,1.78-1.26,1.16-1.44-.08-.02-.43.15-.75.37h0Z"/>
  <path class="cls-1" d="M23.58,25.76c-.26.32-.25,1.68.02,2.33.27.65.82.79,1.21.31.63-.78.18-2.89-.61-2.89-.22,0-.5.12-.62.25h0Z"/>
  <path class="cls-1" d="M14.15,27.27c-.26.63-.19,1.39.21,2.19.3.6,1.13.65,1.42.1.28-.53.11-2.11-.27-2.53-.49-.54-1.08-.44-1.36.24h0Z"/>
  <path class="cls-1" d="M43.51,36.69l-.85.97-.41-.38c-.44-.41-.74-.48-.9-.22-.11.19.83,1.45,1.19,1.59.25.1,2.47-2.32,2.46-2.69,0-.54-.68-.2-1.5.73h0Z"/>
</svg>