<?xml version="1.0" encoding="UTF-8"?>
<svg id="Capa_1" xmlns="http://www.w3.org/2000/svg" viewBox="0 0 50 50">
  <defs>
    <style>
      .cls-1 {
        fill: #4daf51;
      }

      .cls-2 {
        fill: red;
      }

      .cls-3 {
        fill: #bdfff5;
      }

      .cls-4 {
        fill: #89c8ff;
      }
    </style>
  </defs>
  <path class="cls-4" d="M45.84,18.08c.15.14-8.72,4.68-9.15,4.68-.3,0-9.45-4.33-9.45-4.48,0-.17,8.71-4.69,9.04-4.7.17,0,2.36.99,4.86,2.19s4.62,2.24,4.7,2.31Z"/>
  <path class="cls-1" d="M30.64,22.94v-1.6l.68.28c.37.15,1.62.75,2.79,1.34s2.27,1.06,2.45,1.06c.19,0,1.35-.48,2.57-1.08,1.22-.59,2.28-1.08,2.36-1.08.07,0,.13.69.13,1.52v1.52l-.77.46c-1.25.74-2.27,1.04-3.91,1.14-2.23.13-4.74-.51-5.79-1.49-.48-.44-.51-.56-.51-2.07Z"/>
  <path class="cls-2" d="M46.31,26.86c.13.46.26.95.29,1.08.05.16-.19.22-.82.22s-.86-.06-.82-.22c.04-.13.17-.62.29-1.08.16-.62.31-.86.53-.86s.37.24.53.86Z"/>
  <path class="cls-3" d="M43.15,37.91c-.33,2.21-.59,4.03-.6,4.05,0,0-.75-.01-1.67-.06-1.24-.07-1.98-.02-2.89.21-.67.17-1.26.28-1.3.24-.09-.1.94-7.73,1.06-7.85.06-.06.65-.29,1.32-.52,1.28-.44,3.42-.57,4.23-.26l.43.17-.58,4.02Z"/>
  <path class="cls-3" d="M32.16,32.97c.72.06,1.76.28,2.34.5.57.22,1.25.57,1.5.79l.46.4-.49,3.77c-.26,2.07-.51,3.79-.54,3.82s-.47-.15-.97-.4c-1.08-.54-2.86-.99-3.96-1h-.77l.1-.59c.05-.32.26-1.84.46-3.37.21-1.53.42-3.07.47-3.4l.1-.62,1.3.1Z"/>
  <path d="M44.05,42.06c.1-.43,1.01-6.62,1.01-6.81,0-.04-.06-.07-.15-.07-.08,0-.21.39-.28.86s-.31,2.09-.54,3.61c-.23,1.51-.35,2.79-.28,2.83s.19-.15.24-.42ZM42.55,41.96s.27-1.84.6-4.05l.58-4.02-.43-.17c-.81-.31-2.95-.18-4.23.26-.67.23-1.26.46-1.32.52-.12.12-1.15,7.75-1.06,7.85.04.04.63-.07,1.3-.24.91-.23,1.65-.28,2.89-.21.92.05,1.67.07,1.67.06ZM30.29,36.89c-.2,1.53-.41,3.05-.46,3.37l-.1.59h.77c1.1.01,2.88.46,3.96,1,.5.25.94.43.97.4s.28-1.75.54-3.82l.49-3.77-.46-.4c-.25-.22-.93-.57-1.5-.79-.58-.22-1.62-.44-2.34-.5l-1.3-.1-.1.62c-.05.33-.26,1.87-.47,3.4ZM34.93,43.45c-.97-.65-2.41-1.11-3.94-1.25-1.5-.13-2.23-.37-2.38-.75-.09-.23.83-8.08,1.07-9.16.11-.5.82-.8,1.92-.8h.92l-.12-1.53c-.1-1.28-.11-1.6.35-1.52.14.03.32.1.56.19.71.26.77.43.77,1.95,0,1.2.04,1.32.41,1.42.22.06.93.38,1.56.71l1.16.6.81-.35c1.82-.77,4.77-.91,6.27-.29.48.2.59.35.59.79,0,.47.07.55.43.55.49,0,1.01.42,1.01.81,0,.14-.28,2.1-.62,4.35-.41,2.68-.71,4.19-.89,4.36-.24.22-.47.23-1.85.01-2.06-.32-4.59-.28-5.64.08-1.13.39-1.62.36-2.39-.17Z"/>
  <path d="M46.6,27.94c-.03-.13-.16-.62-.29-1.08-.16-.62-.31-.86-.53-.86s-.37.24-.53.86c-.12.46-.25.95-.29,1.08-.04.16.19.22.82.22s.87-.06.82-.22ZM45.58,24.62c.26.25.67-.09.49-.4-.07-.11-.2-.2-.29-.2-.27,0-.4.39-.2.6ZM36.28,13.58c-.33.01-9.04,4.53-9.04,4.7,0,.15,9.15,4.48,9.45,4.48.43,0,9.3-4.54,9.15-4.68-.08-.07-2.2-1.11-4.7-2.31s-4.69-2.19-4.86-2.19ZM30.05,25.55c-.43-.46-.45-.59-.47-2.64l-.02-2.15-.8-.4-1.09-.54c-1.85-.92-1.89-.95-1.89-1.56v-.62l4.48-2.34c2.48-1.29,4.72-2.47,5.02-2.64.81-.47,1.22-.4,3.1.5.96.45,3.26,1.54,5.15,2.43,1.88.89,3.54,1.74,3.72,1.9.53.47.4,1.08-.32,1.5l-.63.37v1.87c0,1.59.03,1.73.45,2.12.39.35.44.54.41,1.38-.02.54.1,1.4.26,1.94.4,1.31.32,2.12-.24,2.4-.65.33-2.46.29-2.96-.06-.37-.26-.41-.4-.33-1.19.06-.49.23-1.26.38-1.7.22-.65.24-.91.08-1.27-.24-.55.05-1.42.57-1.7.28-.15.33-.39.33-1.56,0-1.6-.03-1.62-1.31-.92l-.88.48v2.01c0,2.45-.09,2.62-1.94,3.52-2.43,1.19-5.32,1.37-7.97.53-.57-.17-1.13-.4-1.67-.67-.53-.28-1.19-.72-1.43-.99ZM30.64,21.34v1.6c0,1.51.03,1.63.51,2.07,1.05.98,3.56,1.62,5.79,1.49,1.64-.1,2.66-.4,3.91-1.14l.77-.46v-1.52c0-.83-.06-1.52-.13-1.52-.08,0-1.14.49-2.36,1.08-1.22.6-2.38,1.08-2.57,1.08-.18,0-1.28-.47-2.45-1.06s-2.42-1.19-2.79-1.34l-.68-.28Z"/>
  <path class="cls-1" d="M25.77,28.76c.91.74,1.17,3.47.43,4.66-.62,1.01-1.64,1.2-2.35.45-1.19-1.28-.87-4.62.51-5.3.45-.22.98-.15,1.41.19Z"/>
  <path class="cls-1" d="M17.56,37.16c1.82,1.15,2.84,1.17,4.16.07.48-.4.56-.42.82-.17.24.25.22.34-.16.75-1.04,1.13-2.86,1.45-4.26.77-.94-.46-1.49-1.14-1.17-1.45.16-.17.3-.16.61.03Z"/>
  <path class="cls-1" d="M13.49,33.87c-1.13-1.14-.86-4.56.41-5.25.79-.43,1.66.03,2.11,1.11.3.68.33,2.54.06,3.24-.5,1.31-1.73,1.74-2.58.9Z"/>
  <path d="M24.28,18.3c.47.56.58,1.12.26,1.32-.11.06-.57-.13-1.04-.43-2.41-1.54-4.88-1.61-7.69-.21-1.69.84-2.07.89-2.07.27,0-.4.15-.55,1.44-1.51l.43-.32-1.01-2.13c-.95-1.98-1.07-2.14-1.7-2.36-.89-.3-1.31-.84-1.31-1.65.01-.69.37-1.28.98-1.62.5-.28.92-.26,1.53.06.86.44,1.14,1.34.71,2.28-.16.35-.02.76.92,2.72l1.11,2.32.56-.11c1.4-.28,2.63-.3,3.81-.05.7.15,1.32.21,1.39.15.07-.07.73-1.17,1.47-2.45,1.13-1.98,1.31-2.39,1.15-2.73-.11-.21-.14-.68-.07-1.02.25-1.33,1.92-1.87,2.87-.92.45.45.55.79.49,1.6-.04.5-1,1.35-1.52,1.35-.36,0-.65.37-1.8,2.35-.75,1.3-1.37,2.39-1.37,2.45s.2.33.46.64Z"/>
  <path d="M27.81,41.43c.08.15.18.35.29.57.38.76.39.81.09,1.03-.18.13-.84.4-1.49.61-4.89,1.56-14.06,1.05-17.26-.97-1.65-1.04-2.63-2.72-3.22-5.51-.41-1.94-.4-7.85.01-9.81.41-1.92,1.38-3.86,2.31-4.6,1.41-1.12,4-1.93,7.47-2.32,1.72-.2,7.04-.09,8.86.18.72.1,1.77.33,2.34.5l1.02.32.05.79c.07,1.21-.07,1.31-1.33.99-4.89-1.27-12.66-.99-16.05.59-2.24,1.04-3.07,3.75-2.87,9.4.19,5.35,1.07,7.17,4.02,8.28,3.53,1.32,11.23,1.32,14.69,0,.52-.2.94-.34.94-.31,0,.01.06.11.13.26Z"/>
  <path d="M3.33,29.3c.11-.15.4-.23.66-.21.67.08.81.87.7,3.93-.1,2.77-.17,3.16-.61,3.33-.39.15-.78-.23-1.2-1.17-.69-1.53-.44-4.82.45-5.88Z"/>
</svg>