<?xml version="1.0" encoding="UTF-8"?>
<svg id="Capa_1" xmlns="http://www.w3.org/2000/svg" viewBox="0 0 50 50">
  <defs>
    <style>
      .cls-1 {
        fill: #4daf51;
      }

      .cls-2 {
        fill: #4dafe4;
      }
    </style>
  </defs>
  <path d="M16.58,8.82c-.5.44-.59.65-.59,1.28s.1.84.59,1.28c.32.29.77.52.99.52.34,0,.6.39,1.61,2.42,1.09,2.2,1.17,2.43.86,2.53-.38.12-1.44,1.25-1.44,1.53,0,.45.67.37,1.78-.23,1.54-.82,2.79-1.1,4.46-.99,1.13.07,1.58.21,2.79.82.79.41,1.55.69,1.69.64.42-.17.27-.62-.41-1.25l-.67-.61.43-.77c2.16-3.92,2.39-4.27,2.83-4.27.25,0,.68-.23.97-.52.72-.72.72-1.65,0-2.37-1.31-1.31-3.36.05-2.74,1.81.17.49.07.75-1.21,3.01l-1.4,2.48-.62-.09c-.34-.05-1.34-.09-2.24-.09s-1.86.04-2.16.09c-.53.09-.56.05-1.83-2.34-.95-1.8-1.24-2.51-1.12-2.74.09-.17.16-.62.16-1.02,0-.58-.11-.8-.56-1.18-.73-.61-1.44-.6-2.18.06h0Z"/>
  <path d="M19.68,19.46c-3.28.46-5.75,1.4-6.79,2.59-.78.89-1.42,2.2-1.75,3.56-.44,1.84-.64,5.51-.44,8.05.31,3.83.91,5.68,2.35,7.15,1.92,1.97,6.19,2.93,11.95,2.71,4.79-.19,7.81-1.01,9.34-2.55.8-.8,1.65-2.54,1.8-3.69.1-.74.05-.87-.52-1.48-.35-.38-.7-.68-.79-.68s-.3.54-.46,1.19c-.41,1.66-.95,2.7-1.7,3.32-1.48,1.23-4.45,1.85-8.84,1.85-5.98,0-9.16-1.12-10.19-3.58-1.09-2.61-1.25-8.96-.32-12.35.73-2.63,2.89-3.69,8.38-4.1,3.73-.28,8.67.22,10.69,1.09.45.19,1.06.6,1.33.89.46.49.58.53,1.33.42.99-.14,1.05-.4.33-1.47-1.44-2.14-4.17-2.92-10.67-3.02-2.12-.03-4.4.01-5.04.1h0Z"/>
  <path class="cls-2" d="M34.68,24.77c-1.16,1.22-2.7,3.07-2.94,3.53-.29.55-.24.61,3.09,4.16,3.14,3.35,4.53,4.68,4.86,4.68.53,0,7.88-7.99,7.88-8.57,0-.37-2.45-3.57-3.26-4.25-.34-.28-.85-.32-4.64-.32h-4.27l-.73.77h0ZM37.9,26.81c-.27.45-.55.81-.61.81s-.2-.23-.3-.5c-.1-.27-.24-.64-.31-.81-.11-.28-.02-.31.79-.31h.92l-.49.81h0ZM42.79,25.98c-.07.22-.24.64-.39.93l-.26.52-.52-.84c-.29-.47-.52-.88-.52-.93s.4-.09.91-.09c.86,0,.9.02.78.4h0ZM40.53,26.97l.75,1.22-1.57.09c-.86.05-1.61.07-1.65.05-.09-.05,1.49-2.56,1.62-2.56.06,0,.45.54.85,1.21h0ZM36.13,27.13c.27.56.45,1.04.41,1.09s-.74.06-1.53.03l-1.45-.05.94-1.11c.52-.61.98-1.07,1.04-1.03.06.04.32.52.59,1.08h0ZM44.94,26.93l.87,1.07h-2.9l.47-1.08c.26-.59.52-1.08.58-1.07.06,0,.5.49.98,1.08h0ZM37.53,32.52c.46,1.39.8,2.52.76,2.52-.07,0-2.85-2.88-4.02-4.18l-.78-.86h3.2l.84,2.52h0ZM40.61,32.57c-.81,2.56-.89,2.78-1.02,2.63-.03-.04-.43-1.23-.87-2.64l-.81-2.57h3.51l-.81,2.57h0ZM45.4,29.85c-.53.68-4.17,4.56-4.23,4.5-.05-.05,1.01-3.4,1.44-4.57.06-.16.55-.23,1.55-.23,1.37,0,1.45.02,1.23.31h0Z"/>
  <path class="cls-1" d="M18.63,27.51c-.51.2-.98,1.51-.99,2.75-.01,2.07.89,3.23,2.16,2.78,1.9-.67,1.58-5.69-.36-5.64-.32,0-.68.05-.81.11h0Z"/>
  <path class="cls-1" d="M28.59,27.81c-1.04,1.04-1.08,3.83-.06,4.91,1.03,1.09,2.68-.07,2.66-1.87-.01-1.15-.48-2.99-.82-3.24-.5-.37-1.31-.28-1.78.2h0Z"/>
  <path d="M7.99,28.57c-1.13,1.44-.86,6.03.4,6.81.24.15.38.12.62-.13.27-.28.32-.74.37-3.37.06-3.19-.05-3.78-.69-3.78-.18,0-.51.22-.71.47h0Z"/>
  <path class="cls-1" d="M21.71,36.13c-.15.39.57,1.08,1.51,1.44,1.1.42,2.41.25,3.37-.42,1.41-.99.92-1.7-.54-.78-1.24.79-2.7.69-3.48-.24-.3-.36-.72-.36-.86,0h0Z"/>
</svg>