<?xml version="1.0" encoding="UTF-8"?>
<svg id="Capa_1" xmlns="http://www.w3.org/2000/svg" viewBox="0 0 50 50">
  <defs>
    <style>
      .cls-1 {
        fill: #ea5074;
      }

      .cls-2 {
        fill: #4daf51;
      }

      .cls-3 {
        fill: #4dafe4;
      }
    </style>
  </defs>
  <path class="cls-2" d="M34.64,42.41c-.09-.07-.3-1.6-.22-1.67.04-.05.23-.05.39-.01.17.05.43.09.57.09.22,0,.27.15.27.91v.92l-.49-.11c-.27-.06-.5-.12-.52-.13Z"/>
  <path class="cls-3" d="M34.9,43.13c0-.11.51-.08.69.05.21.14.58,1.51.45,1.64-.06.05-.11.07-.14.03-.14-.18-1-1.66-1-1.72Z"/>
  <path class="cls-1" d="M36.3,38.57c-.06.12-.21.55-.34.94l-.24.72-.6-.1q-.81-.14-.73-.86.12-.94,1.09-.94c.75.01.9.05.82.24Z"/>
  <path class="cls-3" d="M35.83,45.4c.84.77.89.85.49.76-.87-.2-2.26-.98-2.97-1.67-.39-.37-.7-.74-.7-.82,0-.21.76-.59,1.2-.6.3,0,.43.13.71.73.2.45.7,1.07,1.27,1.6Z"/>
  <path class="cls-2" d="M37.88,32.75c.59-.44.73-.49,1.28-.4.33.05.96.22,1.38.38.81.3,2.16,1.14,2.16,1.34,0,.06-.23.16-.5.21-1.09.2-3.03,1.31-4.54,2.59-.84.7-1.37.95-2.06.95-.83,0-.87-.12-.38-1.37.53-1.33,1.71-2.98,2.66-3.7Z"/>
  <path class="cls-1" d="M36.49,43.78c-.12-.39-.1-.41.25-.27.21.08.78.35,1.29.6,1.13.57,2.38.91,3.39.92h.75l-.34.29c-.5.41-1.89.89-2.9,1-.85.09-.91.07-1.6-.46-.61-.48-.71-.64-.72-1.11,0-.3-.06-.75-.12-.97Z"/>
  <path class="cls-1" d="M33.56,33.93c.79-.72,2.69-1.55,3.8-1.65.07-.01-.17.27-.54.62-1.03.97-1.98,2.53-2.58,4.23-.25.7-1.14-.89-1.14-2.06,0-.61.06-.78.46-1.14Z"/>
  <path class="cls-2" d="M32.01,42.77c-.32-.4-.86-2.12-.86-2.73,0-.38.04-.44.26-.34.14.06.7.27,1.26.48.94.35,1,.39,1.09.91.06.3.14.74.18.96.07.33.03.42-.2.42-.16,0-.55.13-.88.3l-.59.31-.26-.31Z"/>
  <path class="cls-2" d="M36.25,40.89h1.83c2.01-.02,4.09-.35,5.67-.9,1.2-.41,1.35-.43,1.35-.16,0,1.08-.84,3.11-1.68,4.06l-.48.56-1.36-.06c-1.22-.06-1.56-.15-3.35-.87l-1.98-.8v-1.83Z"/>
  <path class="cls-3" d="M31.21,37.98c.04-.38.33-1.2.63-1.81l.55-1.13.17.85c.1.49.35,1.07.6,1.39.23.3.51.59.63.63.21.09.21.27-.04,1.59l-.07.4-.85-.31c-.47-.18-1.05-.46-1.29-.62-.39-.27-.42-.36-.33-.99Z"/>
  <path class="cls-3" d="M43.91,35.36c.51.73.98,1.92,1.12,2.85l.1.58-1.02.39c-1.4.54-2.87.85-4.8,1.02-1.76.15-2.91.08-2.91-.19,0-.1.19-.57.43-1.08.34-.73.65-1.09,1.46-1.74.57-.46,1.4-1.05,1.86-1.33.84-.51,2.56-1.19,3.03-1.19.13,0,.47.31.73.69Z"/>
  <path class="cls-1" d="M12.59,20c.23-.3,2.37-.91,4.59-1.32,3.45-.62,6.59-.79,9.77-.52,2.04.18,3.9.5,5.28.91l.99.3.31,1.17c.17.64.32,1.24.32,1.32,0,.09-.6-.02-1.43-.26-2.45-.73-4.41-.96-8.17-.95-4.43,0-7.52.44-10.95,1.55-1.08.35-1.35.39-1.35.23,0-.36.43-2.01.61-2.37.01-.03.02-.05.03-.06Z"/>
  <path d="M37.6,28.52c0,.84-.4,2.24-.65,2.31-.1.03-.36.1-.57.15l-.39.09-.09-2.58c-.05-1.41-.05-2.63-.01-2.7.14-.24.6-.12.94.24.42.44.77,1.57.77,2.49Z"/>
  <path d="M34.9,43.13c0,.06.86,1.54,1,1.72.03.04.08.02.14-.03.13-.13-.24-1.5-.45-1.64-.18-.13-.69-.16-.69-.05ZM36.32,46.16c.4.09.35.01-.49-.76-.57-.53-1.07-1.15-1.27-1.6-.28-.6-.41-.73-.71-.73-.44.01-1.2.39-1.2.6,0,.08.31.45.7.82.71.69,2.1,1.47,2.97,1.67ZM32.27,43.08l.59-.31c.33-.17.72-.3.88-.3.23,0,.27-.09.2-.42-.04-.22-.12-.66-.18-.96-.09-.52-.15-.56-1.09-.91-.56-.21-1.12-.42-1.26-.48-.22-.1-.26-.04-.26.34,0,.61.54,2.33.86,2.73l.26.31ZM37.33,45.86c.69.53.75.55,1.6.46,1.01-.11,2.4-.59,2.9-1l.34-.29h-.75c-1.01-.01-2.26-.35-3.39-.92-.51-.25-1.08-.52-1.29-.6-.35-.14-.37-.12-.25.27.06.22.12.67.12.97.01.47.11.63.72,1.11ZM35.48,38.33q-.97,0-1.09.94-.08.72.73.86l.6.1.24-.72c.13-.39.28-.82.34-.94.08-.19-.07-.23-.82-.24ZM38.11,47.12c-4.65,0-8.29-4.31-7.59-8.97.35-2.34,1.68-4.29,3.56-5.42.91-.56,1.95-.93,3.07-1.05,4.48-.51,8.13,2.48,8.62,7.04.28,2.73-1.27,5.81-3.67,7.27-1,.61-2.84,1.13-3.99,1.13ZM36.25,41.81v.91l1.98.8c1.79.72,2.13.81,3.35.87l1.36.06.48-.56c.84-.95,1.68-2.98,1.68-4.06,0-.27-.15-.25-1.35.16-1.58.55-3.66.88-5.67.89h-1.83v.93ZM35.38,40.82c-.14,0-.4-.04-.57-.09-.16-.04-.35-.04-.39.01-.08.07.13,1.6.22,1.67.02.01.25.07.52.13l.49.11v-.92c0-.76-.05-.91-.27-.91ZM39.31,40.2c1.93-.17,3.4-.48,4.8-1.02l1.02-.39-.1-.58c-.14-.93-.61-2.12-1.12-2.85-.26-.38-.6-.69-.73-.69-.47,0-2.19.68-3.03,1.19-.46.28-1.29.87-1.86,1.33-.81.65-1.12,1.01-1.46,1.74-.24.51-.43.98-.43,1.08,0,.27,1.15.34,2.91.19ZM31.84,36.17c-.3.61-.59,1.43-.63,1.81-.09.63-.06.72.33.99.24.16.82.44,1.29.62l.85.31.07-.4c.25-1.32.25-1.5.04-1.59-.12-.04-.4-.33-.63-.63-.25-.32-.5-.9-.6-1.39l-.17-.85-.55,1.13ZM37.36,32.28c-1.11.1-3.01.93-3.8,1.65-.4.36-.46.53-.46,1.14,0,1.17.89,2.76,1.14,2.06.6-1.7,1.55-3.26,2.58-4.23.37-.35.61-.63.54-.62ZM35.22,36.45c-.49,1.25-.45,1.37.38,1.37.69,0,1.22-.25,2.06-.95,1.51-1.28,3.45-2.39,4.54-2.59.27-.05.5-.15.5-.21,0-.2-1.35-1.04-2.16-1.34-.42-.16-1.05-.33-1.38-.38-.55-.09-.69-.04-1.28.4-.95.72-2.13,2.37-2.66,3.7Z"/>
  <path class="cls-2" d="M26.07,28.46c-.09-1.13.06-1.8.52-2.34.3-.36.51-.45.94-.45,1.03,0,1.61,1.03,1.48,2.64-.09,1.09-.4,1.64-1.1,1.99-.36.18-.48.18-.8,0-.62-.35-.97-.96-1.04-1.84Z"/>
  <path class="cls-2" d="M22.79,34.48c-.85-.06-1.2-.15-1.68-.47-1.02-.67-.7-1.16.35-.54.28.17.88.35,1.32.39.69.07.9.03,1.62-.37,1-.55,1.23-.58,1.17-.14-.04.22-.3.46-.87.76-.75.39-.93.43-1.91.37Z"/>
  <path class="cls-2" d="M19.79,28.29c.02,2.16-1.53,3.23-2.54,1.74-.87-1.27-.44-3.79.7-4.07,1.02-.26,1.82.76,1.84,2.33Z"/>
  <path d="M11.18,31.89c-.24-1.6-.23-5.54.02-7.12.11-.71.19-1.59.17-1.98-.03-.79.23-1.91.67-2.94l.52.21c-.18.36-.61,2.01-.61,2.37,0,.16.27.12,1.35-.23,3.43-1.11,6.52-1.55,10.95-1.55,3.76-.01,5.72.22,8.17.95.83.24,1.43.35,1.43.26,0-.08-.15-.68-.32-1.32l-.31-1.17.49-.04c.51,1.01.84,2.14.7,2.84-.05.23.02,1.13.14,2,.14.95.23,2.7.24,4.41,0,2.65,0,2.84-.28,3.04-.23.16-.52.36-.79.54-.46.3-.88.55-.92.55-.05,0-.04-.35.02-.79.31-2.2.04-7.33-.48-9.15-.19-.68-.32-.74-2.24-1.07-4.53-.77-11.21-.44-15.6.77l-.98.27-.29,1.05c-.41,1.52-.43,7.07-.03,8.93.7,3.19,1.3,3.83,4.15,4.42,3.37.71,9.53.47,12.19-.47l.59-.2-.1.48c-.06.27-.14.78-.19,1.12-.09.62-.1.63-.85.78-6.65,1.31-13.59.7-15.81-1.38-.94-.88-1.56-2.61-2-5.58Z"/>
  <path d="M26.35,14.78c-.93-.33-1.46-.41-3-.45-2.21-.07-3.47.16-5.03.91-1.24.6-3.19,1.95-2.62,1.83.98-.23,3.13-.56,4.65-.72,1.83-.19,7.55-.1,8.65.13.35.08.6.09.56.02-.18-.29-2.18-1.36-3.21-1.72ZM29.33,9.09l-.09-.84c-.1-1,.09-1.43.77-1.72q.6-.26,1.21,0c.62.25.83.61.83,1.41,0,.48-.1.67-.47.99-.28.23-.65.39-.94.39-.45,0-.52.09-1.86,2.44-.76,1.35-1.38,2.49-1.38,2.54,0,.06.42.31.93.57.97.5,1.99,1.16,2.76,1.78.25.21.75.55,1.06.74.55.33,1.12,1.09,1.56,1.94l-.49.04-.99-.3c-1.38-.41-3.24-.73-5.28-.91-3.18-.27-6.32-.1-9.77.52-2.22.41-4.36,1.02-4.59,1.32-.01.01-.02.03-.03.06l-.52-.21c.06-.15.13-.3.2-.44.62-1.24,3.14-3.46,5.06-4.45l.48-.24-1.83-2.54c-1.68-2.32-1.86-2.53-2.22-2.46-.46.09-1.26-.28-1.48-.69-.52-.99.21-2.26,1.3-2.26.32,0,.73.1.9.22.45.31.69,1.13.49,1.65-.13.33-.11.49.07.77.23.36,3.33,4.53,3.52,4.74.06.06.65-.02,1.29-.19,1.62-.41,3.35-.51,4.8-.29,2.02.3,1.74.49,3.3-2.18l1.41-2.4Z"/>
  <path d="M9.61,26.3c.3.04.31.14.35,2.88.02,1.7-.02,2.9-.11,2.99s-.27.05-.53-.12c-1.25-.82-1.41-4.25-.26-5.53.13-.14.39-.25.55-.22Z"/>
</svg>