<?xml version="1.0" encoding="UTF-8"?>
<svg id="Capa_1" xmlns="http://www.w3.org/2000/svg" viewBox="0 0 50 50">
  <defs>
    <style>
      .cls-1 {
        fill: #4daf51;
      }

      .cls-2 {
        fill: #fff;
      }

      .cls-3 {
        fill: #42210b;
      }

      .cls-4 {
        fill: #754c24;
      }
    </style>
  </defs>
  <path d="M42.63,15.09c4.4,1.31,7.04,5.67,6.09,10.09-.54,2.52-2.29,4.75-4.63,5.87-1.49.72-2.38.93-3.87.93h-1.05l-.09.45c-.08.36-.04.5.19.66.41.29.96,1.32,1.07,1.99.12.8-.14,1.98-.69,3.16-.77,1.62-1.73,2.38-3.01,2.38-.45,0-.68.07-.73.22-.04.11-.3.32-.56.44-.98.47-2.37-.33-2.23-1.28.05-.36,0-.43-.64-.7-.39-.16-.93-.55-1.22-.87l-.51-.57-1.11.5c-3.07,1.4-8.21,2.54-11.39,2.54-1.6,0-3.3-.31-4.25-.78-1.55-.75-2.73-2.45-3.65-5.26-.76-2.3-1.07-4.03-1.08-6.12-.02-2.85.47-4.12,2.18-5.69,3.46-3.18,14.26-5.71,18.46-4.32.52.17,1.08.41,1.26.55l.32.24-.31.87c-.18.47-.34.89-.36.92-.03.03-.19-.08-.38-.25-.59-.56-1.49-.78-3.41-.85-3.63-.14-8.28.93-12.08,2.78-2.69,1.31-3.63,2.51-3.85,4.93-.27,2.95,1.34,8.5,2.91,9.99,1.74,1.65,6.28,1.61,11.98-.11,1.96-.59,4.27-1.66,4.5-2.08.25-.47,2.03-2.92,2.53-3.48.26-.29.52-.77.57-1.05.17-.89-.04-2.05-.49-2.71-1.24-1.81-1.67-3.3-1.56-5.43.04-.94.15-1.68.39-2.38.22-.67.55-1.3,1.04-2.04,1.35-2.02,3.54-3.41,5.93-3.79.96-.15,2.78-.03,3.73.25ZM46.86,26.79c1.33-2.5,1.17-5.27-.46-7.72-1.05-1.58-2.88-2.79-4.74-3.12-2.55-.47-4.93.26-6.74,2.04-2.42,2.4-2.96,5.82-1.39,8.93.55,1.1,1.92,2.47,3.05,3.03.88.44.92.53.65,1.41-.19.62-.11.76.49.9.35.08.4.05.54-.46.26-.94.28-.95,1.9-.97,1.23-.02,1.66-.09,2.47-.4,1.91-.73,3.34-1.96,4.23-3.64ZM38.98,37.19c.61-1.76.3-3.1-.85-3.68-1.57-.8-3.24-.24-2.99,1,.07.36.02.47-.28.67-.48.32-.66.81-.47,1.3.11.29.09.43-.08.62-.25.28-.29.89-.08,1.28.15.29,1.12.74,1.58.74.15,0,.41.14.57.31l.3.32.65-.31c.74-.36,1.23-1.03,1.65-2.25ZM36.17,31.64c.09-.42.05-.54-.23-.76-.19-.14-.38-.26-.43-.26s-.13.32-.18.72c-.14,1.04-.2,1.15-.83,1.4-1.02.41-1.67,1.61-1.27,2.35l.17.31.38-.41c.22-.23.41-.6.42-.84.05-.63.65-1.44,1.3-1.75.46-.21.59-.37.67-.76ZM35.09,40.38c.21-.21.18-.25-.36-.53l-.6-.3v.36c0,.5.62.81.96.47ZM33.24,37.05c.1-.22.11-.48.03-.71l-.12-.36-.61.53c-.33.29-.61.64-.61.76,0,.24.77.98,1.02.98.07,0,.13-.19.13-.42s.07-.59.16-.78Z"/>
  <path class="cls-1" d="M45.98,19.76c2.69,4.58-.52,10.31-5.77,10.32-1.27.01-2.11-.18-3.14-.69-2.03-1.01-3.44-3.12-3.65-5.45-.3-3.28,2.05-6.48,5.32-7.22,2.75-.62,5.85.68,7.24,3.04ZM45.97,23.2c0-1.23-.04-1.37-.55-2.4-.64-1.3-1.47-2.11-2.81-2.74-.47-.22-.81-.34-1.25-.41-.24-.04-.51-.06-.84-.08-2.47-.12-4.66,1.17-5.69,3.37-.34.74-.38,1-.38,2.41,0,1.5.02,1.64.46,2.53.22.44.5.86.84,1.23.55.63,1.25,1.15,2.05,1.53.88.41,1.1.46,2.33.46,1.56,0,2.48-.29,3.62-1.13.75-.55,1.76-1.99,2.03-2.86.1-.34.19-1.19.19-1.91Z"/>
  <path class="cls-4" d="M43.3,21.22c0,.76-.23,1.25-.92,1.91-.45.43-.52.58-.52,1.14-.01.76-.38,1.67-.89,2.13-.86.8-2.64,1.24-3.4.85-.21-.11-.36-.22-.48-.36-.19-.24-.27-.54-.27-.98,0-.77.46-1.44,1.23-1.79.34-.15.68-.36.75-.45.06-.1.11-.79.11-1.55,0-1.25.03-1.43.38-1.96.21-.32.61-.69.87-.82.32-.16.65-.23.98-.23,1.13,0,2.16.89,2.16,2.11ZM41.72,22.5c.6-.65.75-1.07.34-1.04-.12,0-.3-.1-.39-.24-.13-.21-.1-.32.16-.53l.32-.28-.32-.22c-.4-.28-.79-.28-1.29,0-.66.36-.87.94-.76,2.14.13,1.41-.11,1.98-1.03,2.42-.37.18-.8.5-.96.72-.28.37-.28.4-.05.75.29.43.38.43,1.39.14.96-.29,1.67-.96,1.79-1.69.04-.28.12-.77.16-1.05.05-.33.28-.73.64-1.12Z"/>
  <path class="cls-3" d="M42.06,21.46c.41-.03.26.39-.34,1.04-.36.39-.59.79-.64,1.12-.04.28-.12.77-.16,1.05-.12.73-.83,1.4-1.79,1.69-1.01.29-1.1.29-1.39-.14-.23-.35-.23-.38.05-.75.16-.22.59-.54.96-.72.92-.44,1.16-1.01,1.03-2.42-.11-1.2.1-1.78.76-2.14.5-.28.89-.28,1.29,0l.32.22-.32.28c-.26.21-.29.32-.16.53.09.14.27.25.39.24ZM40.85,21.33c.14-.17.14-.26,0-.43-.24-.29-.54-.27-.7.04-.26.49.34.83.7.39Z"/>
  <path class="cls-2" d="M40.85,20.9c.14.17.14.26,0,.43-.36.44-.96.1-.7-.39.16-.31.46-.33.7-.04Z"/>
  <path class="cls-1" d="M29.91,29.18c0,.49-.36.62-1.17.43-.41-.1-1.13-.15-1.62-.11-1.11.1-1.24.05-1.24-.48s.63-1.48,1.53-2.27c.77-.68,1.4-.79,1.57-.28.08.25-.06.44-.73,1.03l-.83.73,1.04.18c1.11.18,1.45.37,1.45.77Z"/>
  <path class="cls-1" d="M25.85,33.26c.11.59-.78,1.39-1.87,1.69-.97.26-2.41-.35-2.19-.93.08-.21.19-.24.55-.17,1.49.32,2.13.18,2.62-.58.27-.42.81-.42.89-.01Z"/>
  <path d="M26.02,10.71c0,.67-.3,1.12-.96,1.45-.48.23-.54.35-1.14,2.19-.35,1.07-.63,2.02-.63,2.11s.17.21.37.26c.51.12,1.08.73.97,1.01-.11.29-.57.29-1.36-.01-.37-.13-1.11-.23-1.78-.24-1.89-.01-3.26.53-4.7,1.85-.49.45-.97.77-1.11.75-.41-.08-.34-.63.17-1.31l.5-.65-1.28-1.58c-.99-1.24-1.33-1.57-1.55-1.51-.16.04-.53-.05-.82-.19-.96-.45-1.16-1.67-.39-2.43,1.06-1.06,2.81-.13,2.57,1.36-.08.5-.02.63,1.06,1.98.62.8,1.21,1.5,1.3,1.55.09.06.66-.11,1.27-.37.85-.36,1.39-.48,2.35-.54l1.25-.07.72-2.24c.66-2.01.71-2.26.53-2.52-.45-.64-.16-1.68.57-2.08.93-.51,2.09.18,2.09,1.23Z"/>
  <path class="cls-1" d="M18.78,28.55c.53.59.84,1.57.83,2.59-.01.86-.31,1.4-.9,1.61-1.1.38-2.2-1.05-2.19-2.83,0-1.04.21-1.54.73-1.84.5-.27,1-.12,1.53.47Z"/>
  <path d="M8.1,30.05c.37.72.93,3.32.93,4.33,0,1.12-.2,1.41-.83,1.19-1.2-.42-2.13-4.7-1.24-5.68.38-.43.87-.36,1.14.16Z"/>
</svg>