<?xml version="1.0" encoding="UTF-8"?>
<svg id="Capa_1" xmlns="http://www.w3.org/2000/svg" viewBox="0 0 50 50">
  <defs>
    <style>
      .cls-1 {
        fill: #fff;
      }

      .cls-2 {
        fill: #4dafe4;
      }
    </style>
  </defs>
  <rect class="cls-2" width="50" height="51"/>
  <g>
    <path class="cls-1" d="M39.89,36.88c.08.08.08.17.01.31-.1.17-.19.18-1.13.18h-1.02l-.05.29c-.04.17-.41,1.57-.83,3.13-.42,1.55-.88,3.24-1,3.73-.23.92-.43,1.26-.82,1.4-.19.07-.19.08.11.38.26.26.31.37.31.73,0,.78-.46,1.25-1.2,1.24-.42-.01-.73-.19-.97-.59-.3-.49-.19-1.1.26-1.48l.24-.2h-4.39l.23.18c.95.74.17,2.39-.98,2.08-.59-.16-.92-.59-.92-1.2,0-.34.29-.85.53-.95.11-.04.08-.07-.12-.11-.23-.04-.28-.1-.28-.31v-.28l3.49-.05c2.15-.02,3.5-.07,3.55-.13.08-.1.3-.77.3-.94,0-.07-1-.1-3.68-.1-3.53,0-3.68-.01-3.83-.18-.1-.11-.43-1.25-.86-2.98-.4-1.55-.74-2.84-.78-2.88-.04-.05-.25-.08-.48-.11-.38-.02-.41-.04-.41-.29q0-.28.6-.3c.7-.04.8.05,1.06.84l.16.54h9.71l.25-.95c.14-.53.32-1,.4-1.06.23-.17,2.4-.16,2.54.02ZM36.44,39.84l.06-.28h-2.6l-.06.38c-.02.22-.07.58-.11.8-.05.4-.04.43.16.48.12.04.66.05,1.2.02l1-.02.14-.56c.08-.3.18-.68.22-.83ZM35.63,42.85c.12-.4.22-.79.22-.88,0-.14-.11-.16-1.12-.16h-1.1l-.08.86c-.06.61-.05.88.01.9s.5.04.98.01l.9-.02.19-.72ZM34.36,47.64c.48,0,.7-.55.36-.92-.32-.35-.94-.1-.94.38,0,.25.3.54.58.54ZM33.2,40.18l.06-.61h-2.92l.06.79c.04.43.08.82.11.85s.6.07,1.28.07h1.25l.05-.25c.02-.13.08-.52.11-.85ZM32.93,42.65l.06-.83h-2.45l.05.52c.02.29.07.68.1.9l.04.38h1.03c.56,0,1.04-.04,1.07-.07s.07-.44.11-.9ZM30.11,43.62l-.06-.7c-.04-.38-.08-.79-.11-.9-.04-.19-.07-.2-1.12-.2-.59,0-1.08.04-1.08.07s.1.43.2.9l.2.83h1.96ZM29.86,41.23v-.23c-.02-.12-.06-.49-.1-.83l-.05-.61h-2.58l.13.53c.07.29.17.66.22.85l.1.35,1.14-.04,1.14-.02ZM29.39,47.41c.12-.18.06-.58-.11-.72-.35-.32-.91-.07-.91.41.01.26.07.37.34.52.22.11.54.01.68-.2Z"/>
    <path class="cls-1" d="M38.84,24.38c.2.58.29,2.3.13,2.99-.22.96-.67,1.57-1.14,1.52l-.25-.04.02-2.65c.02-1.46.05-2.69.07-2.72s.13-.07.25-.07c.29,0,.73.48.91.97Z"/>
    <path class="cls-1" d="M36.78,25.08c0,2.81-.12,4.07-.59,5.89-.7,2.77-1.76,3.74-4.74,4.37-1.91.4-5.21.62-7.39.52-.77-.04-1.42-.06-1.44-.05s.16,1.13.4,2.47c.62,3.56,1.22,7.12,1.22,7.3,0,.22-.23.4-1.51,1.18l-1.16.71-5.71-.11c-5.2-.1-5.72-.12-5.93-.26s-.23-.22-.26-1.03l-.05-.88-.47-.18c-.92-.34-1.52-1.28-1.8-2.84-.3-1.73.4-3.37,1.63-3.85l.41-.16v-.73c.01-.4.05-1.38.07-2.2.06-1.4.07-1.48.28-1.64.17-.13.36-.17.86-.17h.66l.11-.47c.18-.74.7-1.64,1.21-2.11.43-.4,1.39-.94,1.66-.94.08,0,.11-.07.07-.24-.32-1.51-.42-5.27-.2-7.22.19-1.68.52-3.12.84-3.72.29-.53,1.1-1.4,1.52-1.62.16-.08.53-.38.84-.7.68-.66,1.79-1.5,2.58-1.94l.58-.32-.17-.28c-.1-.16-.71-1.22-1.37-2.38l-1.19-2.1h-.37c-1.18,0-1.91-1.14-1.39-2.16.12-.22.35-.49.53-.61.25-.18.4-.2.85-.18.94.06,1.39.55,1.39,1.52,0,.28-.06.56-.14.71l-.16.25,1.38,2.42c.76,1.33,1.39,2.42,1.39,2.44.01.02.32-.07.71-.2,1.18-.4,2.06-.53,3.48-.53s2.22.11,3.37.46c.4.11.74.18.77.14.06-.06,1.14-1.99,2.23-3.98l.37-.67-.19-.25c-.42-.59-.25-1.56.35-2.03.28-.2.42-.24.9-.24.62,0,.92.16,1.27.67.28.41.28,1.2,0,1.62-.28.41-.73.66-1.2.66h-.4s-1.26,2.29-1.26,2.29c-.7,1.25-1.26,2.3-1.26,2.34s.14.14.34.23c.68.32,1.9,1.2,2.63,1.91.42.4.98.86,1.25,1.02,1.67,1.06,2.21,2.98,2.21,7.88ZM34.58,30.16c.62-2.9.66-7.31.07-9.59-.28-1.08-.96-1.74-2.22-2.14-.77-.25-2.54-.55-4.04-.68-.95-.08-4.42-.1-5.27-.02-2.36.2-4.5.6-5.36,1-1.02.47-1.4,1.06-1.7,2.6-.4,2.02-.42,5.17-.07,7.66.1.68.12.77.34.85,1,.38,1.55.73,1.99,1.21.5.55.94,1.39,1.04,1.99l.06.41h2.39l.34.25.34.29h2.8c2.9.01,3.89-.06,5.62-.41,2.63-.52,3.18-1.03,3.7-3.42ZM32.42,16.46c.34.08.18-.1-.61-.68-1.31-.97-2.92-1.68-4.45-1.94-1.68-.29-3.83-.12-5.42.43-1.19.41-3.14,1.57-3.62,2.16-.11.13-.08.13.18.06,1.15-.34,4.88-.71,6.97-.72,2.06,0,5.59.35,6.96.7ZM22.77,46.04c.82-.5.88-.56.84-.79-.02-.13-.25-1.45-.5-2.94-.24-1.49-.62-3.68-.84-4.91-.23-1.21-.42-2.38-.46-2.6-.11-.77-.02-.72-1.21-.72h-1.08v.82c0,.78-.01.83-.26,1.08-.29.29-.64.34-1.03.16-.35-.16-.5-.59-.5-1.37v-.68h-4.68v.84c0,.84,0,.85-.28,1.09-.4.32-.83.31-1.18-.04-.25-.25-.26-.3-.26-1.08v-.82h-.53c-.48,0-.54.02-.58.2-.04.11-.08,1.02-.12,2.03l-.06,1.81h.42c1.37,0,2.32.9,1.96,1.84-.08.25-.07.3.13.46.24.2.49.74.49,1.07,0,.12-.1.41-.22.64-.19.38-.2.43-.07.61.08.12.14.4.14.62,0,.86-.74,1.49-2.02,1.74l-.55.1.02.72.04.72,2.92.06c1.62.04,4.06.08,5.44.12l2.52.06-.07-1.48c-.04-.8-.14-3.26-.24-5.47-.1-2.2-.17-4.26-.16-4.58.02-.56.04-.59.25-.59s.23.02.29.77c.07.88.3,5.12.44,8.59.06,1.28.11,2.38.11,2.4.01.04.42-.18.89-.47ZM18.76,35.56c.14-.07.17-.19.17-.88,0-1.98-.74-3.36-2.14-4.02-.62-.29-1.79-.38-2.47-.19-1.08.3-2.04,1.37-2.38,2.6-.07.26-.12.9-.12,1.43,0,.85.01.98.17,1.06.35.19.44-.05.48-1.16.06-1.58.49-2.45,1.51-3,.55-.3,1.51-.41,2.12-.24.88.24,1.68,1.06,1.97,2,.06.24.16.85.18,1.36.07,1,.18,1.22.5,1.04ZM15.51,33.44l-.26-.5c-.16-.28-.32-.66-.38-.85-.05-.19-.12-.35-.16-.35-.5.06-1.27.84-1.48,1.5l-.07.2h2.35ZM10.54,44.47c1.2-.19,1.96-.85,1.63-1.42-.17-.29-.58-.36-1.36-.2-.59.12-.82.06-.78-.22.02-.16.14-.2.96-.34.55-.1,1-.22,1.09-.3.35-.31.31-.89-.08-1.19-.17-.13-1.08-.14-1.73-.02-.4.07-.49.07-.61-.05-.22-.22.06-.4.77-.5,1.18-.17,1.24-.19,1.33-.47.12-.34-.07-.68-.48-.88-.71-.34-1.64-.28-2.34.17-1.08.67-1.37,2.58-.64,4.15.53,1.13,1.08,1.44,2.23,1.26Z"/>
    <path class="cls-1" d="M31.5,25.26c.14,2.08-1.18,3.35-2.21,2.16-.4-.44-.52-.88-.52-1.88,0-.82.02-.96.26-1.43.16-.32.36-.59.53-.7.92-.56,1.84.32,1.93,1.85Z"/>
    <path class="cls-1" d="M27.62,29.93c.29.22.05.53-.65.88-.6.3-.64.31-1.7.31s-1.1-.01-1.7-.32c-.65-.32-.82-.58-.54-.8.12-.1.24-.07.74.19.56.29.66.3,1.5.3s.94-.01,1.5-.34c.67-.38.64-.37.85-.22Z"/>
    <path class="cls-1" d="M21.36,23.56c.76.7.91,2.38.34,3.54-.26.53-.59.76-1.04.74-.49,0-.78-.22-1.06-.78-.42-.85-.4-2.45.06-3.18.1-.16.3-.36.47-.47.44-.28.82-.23,1.24.14Z"/>
    <path class="cls-1" d="M13.22,26.08c.02,1.44.01,2.66-.04,2.72-.25.36-.9-.18-1.22-1.02-.18-.46-.2-.71-.22-1.67-.01-1.28.13-1.86.6-2.39.22-.25.32-.31.55-.29l.28.02.05,2.62Z"/>
  </g>
</svg>