<?xml version="1.0" encoding="UTF-8"?>
<svg id="Capa_1" xmlns="http://www.w3.org/2000/svg" viewBox="0 0 50 50">
  <defs>
    <style>
      .cls-1 {
        fill: #4daf51;
      }

      .cls-2 {
        fill: #fff;
      }
    </style>
  </defs>
  <path d="M49.01,25.27c.08,4.88,0,5.36-.96,6.04-.53.37-.91.4-7.63.4h-7.08l-1.35-.79-.13-.56-.07-4.42c-.04-3.74-.01-4.44.26-5.03.01-.03.03-.06.04-.09.47-.92,1.09-1.19,2.68-1.19h1.31l.35-.9c.2-.54.55-1.02.86-1.18.36-.2,1.28-.29,3.1-.29,3-.01,3.25.08,3.77,1.47l.34.89h1.57c1.45,0,1.63.04,2.22.57l.65.57.06,4.5ZM47.76,25.84c.08-5.15.12-5.05-2.22-5.05-1.86,0-1.98-.08-2.51-1.47l-.3-.8-2.43-.07-2.42-.05-.29.69c-.15.37-.29.77-.29.87,0,.52-.78.84-2.07.84-2.21,0-2.09-.26-2.09,4.73,0,3.94.03,4.35.36,4.64.33.29,1.09.33,6.89.33,5.34,0,6.6-.06,6.92-.29.35-.25.38-.59.44-4.37Z"/>
  <path class="cls-1" d="M46.24,21.89c.34.43-.01.98-.62.98s-.97-.55-.62-.98c.14-.18.42-.31.62-.31s.47.13.62.31Z"/>
  <path class="cls-1" d="M44.19,24.85c.43,3.82-4.66,5.82-7,2.75-.64-.84-.87-2.55-.49-3.68.29-.87,1.32-1.88,2.31-2.24,2.23-.82,4.92.81,5.18,3.18ZM42.7,26.34c.64-1.23-.03-2.93-1.35-3.49-.88-.36-1.23-.35-2.16.11s-1.49,1.3-1.49,2.32.34,1.64,1.17,2.19c1.3.87,3.07.35,3.83-1.13Z"/>
  <path class="cls-2" d="M41.35,22.85c1.32.56,1.99,2.25,1.35,3.49-.76,1.49-2.53,2-3.83,1.13-.83-.55-1.17-1.2-1.17-2.19s.52-1.84,1.49-2.32,1.28-.47,2.16-.11Z"/>
  <path d="M42.22,33.86c.04.63-.07,1.14-.4,1.76-.52.99-.94,1.33-1.43,1.14-.25-.1-.31-.43-.31-1.88,0-.97.06-1.83.13-1.9s.55-.11,1.05-.08l.9.07.06.89Z"/>
  <path d="M38.95,32.89l-.13,1.91c-.54,7.52-2.82,9.7-11,10.54-3.94.4-7.99.21-11.79-.57-5.76-1.18-7.38-3.14-8.06-9.79-.25-2.41,0-6.53.53-8.77.73-3.03,2.44-5.39,4.48-6.15,1.03-.4,3.53-.87,6.33-1.22,3.89-.5,11.68.08,11.68.86,0,.04-.18.49-.4,1.01-.34.79-.46.91-.84.82-1.51-.36-6.18-.56-8.67-.36-7.19.57-9.28,1.85-10.16,6.18-.73,3.51-.58,8.37.3,11.06.98,2.97,3.04,3.95,9.57,4.58,3.76.36,8.97-.07,11.46-.95,1.17-.42,2.57-1.62,3.1-2.64.5-.99,1.18-3.78,1.18-4.89,0-1.34.24-1.62,1.42-1.62h1.01Z"/>
  <path d="M33.04,8.72c.24.98-.83,2.37-1.82,2.37-.35,0-.67.43-1.73,2.41l-1.29,2.42.58.65c1.27,1.44.53,1.77-1.65.74-1.54-.74-1.72-.77-3.6-.77s-2.1.04-3.39.66c-1.41.66-2.24.76-2.41.29-.08-.24.23-.57,1.3-1.4l.47-.36-1.16-2.32c-.95-1.88-1.23-2.31-1.57-2.31-.62,0-1.42-.72-1.57-1.39-.18-.81.36-1.87,1.16-2.27s1.49-.26,2.07.4c.48.55.57,1.38.23,2.12-.19.41-.06.8.99,2.88.66,1.33,1.26,2.41,1.33,2.41.08,0,.68-.1,1.38-.22.96-.17,1.58-.17,2.69.03.79.14,1.52.26,1.61.27.09,0,.77-1.08,1.51-2.41,1.24-2.23,1.34-2.49,1.25-3.38-.08-.83-.01-1.05.45-1.59.44-.53.67-.63,1.36-.63.92,0,1.57.49,1.79,1.4Z"/>
  <path class="cls-1" d="M27.6,28.35c1.41-1.67,3.25.15,2.99,2.99-.19,2-1.21,3.08-2.49,2.63-1.56-.55-1.87-3.99-.51-5.62Z"/>
  <path class="cls-1" d="M25.51,37.52c.92-.64,1.36-.65,1.28-.07-.15,1.06-2.56,1.9-4.35,1.53-1.11-.24-2.53-1.32-2.28-1.73.21-.34.43-.3,1.27.25,1.34.9,2.76.9,4.08.01Z"/>
  <path class="cls-1" d="M16.64,28.51c1.42-1.68,3.26.15,2.99,2.98-.18,2-1.2,3.09-2.49,2.64-1.56-.55-1.87-4-.51-5.62Z"/>
  <path d="M6.62,32.61c0,3.01-.06,3.65-.32,3.92-.36.35-.4.35-.87.1-.63-.33-1.19-2.19-1.19-3.92,0-1.91.27-2.93.99-3.64.3-.3.64-.55.73-.55.56,0,.66.57.66,4.09Z"/>
</svg>