<?xml version="1.0" encoding="UTF-8"?>
<svg id="Capa_1" xmlns="http://www.w3.org/2000/svg" viewBox="0 0 50 50">
  <defs>
    <style>
      .cls-1 {
        fill: #ea5074;
      }
    </style>
  </defs>
  <path d="M14.11,9.31c-.46.27-.84,1.32-.7,1.9.18.72.9,1.3,1.62,1.3.57,0,.75.2,2.43,2.7l1.81,2.7-1.09.61c-.6.34-1.92,1.44-2.94,2.45-1.52,1.51-1.93,2.05-2.3,3.04-.72,1.91-1.05,4.16-1.05,7.2,0,4.9.66,7.52,2.32,9.22.84.86,1.26,1.11,2.42,1.48,4.24,1.32,13.7,1.32,17.96,0,3.59-1.11,4.83-3.82,4.82-10.5-.01-5.06-.68-7.89-2.25-9.58-2.01-2.16-2.58-2.64-3.97-3.37-.8-.42-1.46-.84-1.46-.92s.65-1.22,1.46-2.54c1.37-2.24,1.51-2.4,2.2-2.51,1.3-.21,1.95-1.19,1.52-2.3-.44-1.16-1.83-1.46-2.7-.58-.43.43-.49.65-.45,1.55.05.98-.04,1.19-1.22,3.05-.7,1.1-1.44,2.23-1.64,2.52l-.37.52-1.16-.28c-2.24-.54-6.93-.3-8.86.44-.22.08-.8-.61-2.13-2.57l-1.83-2.69.12-1c.11-.9.07-1.05-.4-1.52-.55-.55-1.52-.69-2.16-.32h0ZM28.97,17.8c1.6.33,3.9,1.37,4.86,2.21l.6.52-.7-.1c-.38-.05-1.56-.26-2.6-.45-2.67-.49-8.86-.44-11.8.09-1.16.21-2.13.36-2.16.33-.12-.09,2.24-1.6,3.06-1.95,2.1-.91,6.04-1.2,8.74-.64h0ZM32.39,22.59c3.24.76,3.86,1.23,4.45,3.42.44,1.64.62,7.02.3,9.06-.6,3.8-1.65,4.75-6.01,5.48-2.3.38-9.29.32-11.56-.1-3.46-.64-4.49-1.52-5.16-4.42-.78-3.38-.48-9.27.58-11.32.56-1.08,1.22-1.49,3.26-2,2.56-.64,4.16-.78,8.18-.7,3.2.07,4.14.16,5.96.58h0Z"/>
  <path d="M40.66,28.67c-.05.08-.08,1.56-.08,3.3,0,3.4.07,3.59.97,2.62.43-.46.49-.74.56-2.48.05-1.5,0-2.11-.25-2.58-.32-.62-1.03-1.13-1.19-.86h0Z"/>
  <path d="M9.51,29.23c-.45.48-.48.67-.48,2.59,0,1.8.05,2.14.42,2.63.22.3.6.59.81.62.37.06.39-.09.39-3.15,0-2.82-.04-3.21-.33-3.21-.18,0-.55.24-.81.52h0Z"/>
  <path class="cls-1" d="M21.19,26.9c-.67.61-1.74,1.01-2.72,1.01-.46,0-.55.08-.5.45.05.41.16.45,1.16.43,1.26-.02,2.53-.59,3.18-1.42.82-1.04-.09-1.42-1.12-.47h0Z"/>
  <path class="cls-1" d="M28.53,26.69c0,.65,1.44,1.76,2.62,2.02,1.4.31,2.08.22,2.08-.28,0-.31-.24-.43-1.28-.64-.86-.17-1.53-.46-2.04-.87-.86-.69-1.38-.78-1.38-.23h0Z"/>
  <path class="cls-1" d="M19.83,30.19c-.9.9-.56,2.89.56,3.31.54.2,1.23-.11,1.49-.67.4-.84.44-1.18.24-1.94-.33-1.24-1.42-1.57-2.29-.7h0Z"/>
  <path class="cls-1" d="M29.47,30.07c-.8.88-.48,3.05.5,3.41,1.42.52,2.49-1.37,1.67-2.95-.46-.88-1.58-1.12-2.17-.46h0Z"/>
  <path class="cls-1" d="M24.29,35.99c-1.08.39-1.74.94-1.75,1.46,0,.4.51.31,1.31-.24,1.12-.77,2.78-.62,4.12.35.28.2.39.2.6-.01.21-.21.14-.37-.38-.84-1.06-.96-2.5-1.23-3.9-.72h0Z"/>
</svg>