<?xml version="1.0" encoding="UTF-8"?>
<svg xmlns="http://www.w3.org/2000/svg" version="1.1" viewBox="0 0 50 50">
  <defs>
    <style>
      .cls-1 {
        fill: #eeff16;
      }

      .cls-2 {
        fill: #4b5320;
      }
    </style>
  </defs>
  <!-- Generator: Adobe Illustrator 28.6.0, SVG Export Plug-In . SVG Version: 1.2.0 Build 709)  -->
  <g>
    <g id="Capa_1">
      <rect class="cls-1" x="23" y="5" width="15" height="8"/>
      <path class="cls-2" d="M29.07,2.31c-6.34.99-15.16,5.43-20.06,10.1-1.89,1.8-2.39,2.48-2.75,3.71-.26.9.12,2.09.88,2.73l.65.55.71-.62c1.63-1.42,11.02-3.38,18.67-3.89,4.37-.29,10.4.59,12.96,1.89l1.49.76-.11-1.6c-.09-1.34-.03-1.79.39-2.83,1.44-3.59.43-7.1-2.64-9.18-2.51-1.7-6.05-2.25-10.21-1.6h0ZM32.14,6.66c.52,1.22.67,1.32,1.83,1.32.48,0,.88.06.88.13s-.38.47-.84.89l-.84.77.32,1.03c.17.57.27,1.07.22,1.12-.05.05-.54-.21-1.06-.58l-.97-.67-.99.65c-.55.36-1.01.58-1.04.49-.03-.09.07-.58.23-1.1l.28-.94-.97-.88-.97-.88h.84c1.45-.04,1.69-.19,2.09-1.3.2-.57.41-1.03.46-1.03s.28.44.52.99h0Z"/>
      <path d="M23.82,15.98c-3.78.34-9.71,1.39-12.92,2.3-2.96.84-4.29,4.1-4.57,11.2-.09,2.25-.02,3.79.25,5.88,1.06,8.24,3.18,9.93,13.77,10.94,3.17.3,9.72.14,12.62-.31,7.06-1.1,9.32-2.71,10.34-7.37.59-2.67.84-6.11.71-9.53-.33-8.4-1.77-10.99-6.82-12.3-2.92-.75-9.51-1.15-13.38-.8h0ZM32.85,18.86c6.09.97,7.17,1.9,7.88,6.83.34,2.33.28,7.54-.11,10.18-.51,3.44-1.25,4.89-3,5.84-3.41,1.85-13.48,2.48-20.6,1.28-3.86-.65-5.2-1.37-6.27-3.39-1.6-3.02-1.98-11.86-.69-16.02,1.02-3.27,2.47-3.98,10.09-4.93,3-.38,9.73-.27,12.7.2h0Z"/>
      <path class="cls-2" d="M2.36,26.78c-1.05,1.15-1.22,1.81-1.22,4.58,0,2.54.02,2.66.65,3.78.36.63.9,1.3,1.2,1.47.99.56,1.08.21,1.15-4.37.08-4.85-.05-5.79-.81-5.88-.34-.04-.68.11-.96.42h0Z"/>
      <path class="cls-2" d="M45.93,26.79c-.19.33-.3,1.73-.34,4.55-.08,4.77,0,5.48.62,5.48.68,0,1.75-1.28,2.17-2.6.5-1.58.39-5.11-.18-6.22-.52-1.01-1.17-1.68-1.61-1.68-.2,0-.51.22-.65.47h0Z"/>
      <path d="M31.28,26.08c-.77.76-1.13,2.09-1,3.73.17,2.14,1.16,3.58,2.28,3.28,2.12-.55,2.54-5.9.57-7.28-.67-.47-1.18-.4-1.85.27h0Z"/>
      <path d="M17.24,26.17c-.66.72-.88,1.49-.88,3.19,0,2.39.7,3.68,1.99,3.68s2-1.34,2-3.82c0-2.25-.72-3.53-2-3.53-.42,0-.84.18-1.12.48h0Z"/>
      <path d="M21.61,36.73c-.2.23-.05.4.77.92.55.35,1.34.7,1.72.77,1.2.22,2.93-.07,3.93-.65,1.05-.61,1.29-.9.99-1.21-.14-.14-.55-.01-1.22.38-1.41.83-3.3.85-4.85.05-.92-.48-1.13-.52-1.33-.28h0Z"/>
    </g>
  </g>
</svg>