<?xml version="1.0" encoding="UTF-8"?>
<svg xmlns="http://www.w3.org/2000/svg" version="1.1" viewBox="0 0 50 50">
  <defs>
    <style>
      .cls-1 {
        fill: #d62828;
      }

      .cls-2 {
        fill: #0b6e4f;
      }
    </style>
  </defs>
  <!-- Generator: Adobe Illustrator 28.6.0, SVG Export Plug-In . SVG Version: 1.2.0 Build 709)  -->
  <g>
    <g id="Capa_1">
      <g>
        <path class="cls-1" d="M12.9,6.52c-1.38.6-1.3,2.9.13,3.42,1.16.43,1.38.64,2.77,2.69l1.43,2.11-.82.74c-.66.6-.88.92-1.08,1.62-.14.48-.22,1.09-.17,1.34.08.4.03.48-.34.56-2.61.58-4.19,1.38-5.1,2.59-1.23,1.63-1.89,5.42-1.76,10.11.15,5.44,1.02,8.42,2.8,9.66,1.8,1.25,5.58,1.99,10.93,2.13,3.62.1,6.48-.11,9.39-.69,3.06-.61,4.65-1.47,5.56-3.03,1.2-2.04,1.87-8.86,1.25-12.74-.09-.56-.07-.59.3-.51.22.05.6-.03.87-.17,1.49-.77,2.08-2.87,1.27-4.49-.33-.66-.36-.84-.22-1.27.09-.27.19-.53.22-.57.03-.04.54.3,1.17.75l1.12.82.8-.35c.78-.34.8-.36.7-.91-.86-5.01-3.25-8.44-7.18-10.33-1.93-.93-3.62-1.25-6.46-1.26-2.29,0-2.56.03-3.55.41-1.71.66-2.78,1.39-4.53,3.06-1.52,1.46-1.68,1.57-2.29,1.57-.37,0-.84.07-1.06.15-.39.14-.46.07-1.51-1.48-1.56-2.32-1.83-2.89-1.95-4.18-.09-.99-.16-1.17-.62-1.57-.57-.5-1.22-.57-2.05-.21h0ZM26.18,15.01c5.14.77,9.24,2.47,11.9,4.93,1.12,1.04,1.97,2.52,1.96,3.44,0,1.07-.86,2.42-1.55,2.42-.11,0-.99-.78-1.93-1.73-1.21-1.22-2.04-1.9-2.81-2.32-3.54-1.91-7.97-2.82-12.75-2.62-1.36.06-2.89.15-3.39.2-.83.09-.95.06-1.34-.33-.37-.37-.42-.52-.35-1.21.13-1.42,1.18-2.39,3.02-2.78,1.4-.3,5.22-.3,7.23,0h0ZM26.62,21.01c.92.09,2.46.34,3.41.55,4.27.95,5.15,2.09,5.56,7.21.1,1.3.1,2.67,0,4.1-.38,5.14-1.24,6.7-4.1,7.47-3.46.93-9.95,1.16-14.26.52-3.01-.45-4.14-.81-5.06-1.62-.89-.78-1.16-1.44-1.58-3.82-.38-2.18-.46-6.37-.15-8.45.5-3.42,1.43-4.69,3.86-5.24,4.06-.92,7.84-1.14,12.32-.71h0Z"/>
        <path class="cls-2" d="M43.38,21.8c-2.05,1.09-2.02,4.09.06,5.1,1.72.84,3.65,0,4.13-1.77.65-2.43-1.96-4.51-4.2-3.33h0Z"/>
        <path class="cls-2" d="M5.69,28.28c-1.06.89-1.51,3.79-.9,5.82.47,1.57,1.73,2.48,2.01,1.46.14-.53.14-6.68,0-7.2-.15-.55-.51-.57-1.11-.08h0Z"/>
        <path class="cls-2" d="M39.25,28.12c-.24.29-.43,5.58-.25,6.99.14,1.1.39,1.24,1.12.6.83-.73,1.22-1.91,1.22-3.73s-.3-2.92-.94-3.6c-.51-.54-.84-.62-1.14-.26h0Z"/>
        <path d="M17.06,26.95c-.63.31-1.08,1.49-1.08,2.85,0,.66.09,1.47.2,1.79.24.69.91,1.41,1.31,1.41.54,0,1.26-.78,1.52-1.65.75-2.51-.42-5.15-1.95-4.4h0Z"/>
        <path d="M28.04,27c-1.28.69-1.43,4.27-.22,5.47.62.62.84.65,1.42.19.75-.59.96-1.2.97-2.79,0-1.2-.05-1.55-.36-2.13-.21-.38-.54-.76-.77-.84-.5-.19-.53-.19-1.04.09h0Z"/>
        <path d="M20.13,35.72c-.31.51,1.5,1.44,2.81,1.44,1.2,0,2-.24,2.61-.79.78-.7.4-.9-.69-.36-1.22.6-2.49.6-3.65-.01q-.94-.5-1.08-.28h0Z"/>
      </g>
    </g>
  </g>
</svg>